<svg width="30" height="30" viewBox="0 0 30 30" fill="none" xmlns="http://www.w3.org/2000/svg">
<path d="M15.6445 27.7733L15.5977 27.7657C15.6042 27.7708 15.6119 27.7741 15.6201 27.7754C15.6283 27.7768 15.6367 27.776 15.6445 27.7733Z" fill="#1A4157"/>
<path d="M26.3027 11.0027C26.2894 10.932 26.2528 10.8678 26.1987 10.8203C26.1447 10.7728 26.0764 10.7447 26.0045 10.7404C25.9327 10.7362 25.8615 10.7561 25.8023 10.7969C25.7431 10.8377 25.6991 10.8972 25.6776 10.9658C25.6569 11.031 25.6161 11.0879 25.561 11.1284C25.506 11.169 25.4395 11.191 25.3711 11.1914H24.4647C24.406 11.1915 24.3485 11.1755 24.2983 11.1451L22.9869 10.3588C22.9367 10.3284 22.8792 10.3124 22.8205 10.3125H20.7229C20.659 10.3124 20.5966 10.3314 20.5436 10.367L17.9567 12.0914C17.9119 12.1212 17.8753 12.1616 17.8502 12.2091C17.825 12.2566 17.8121 12.3096 17.8125 12.3633V14.809C17.8124 14.8676 17.8283 14.9251 17.8585 14.9754C17.8886 15.0257 17.9319 15.0668 17.9836 15.0943L21.3756 16.9049C21.4266 16.9323 21.4693 16.9728 21.4994 17.0222C21.5294 17.0717 21.5458 17.1283 21.5467 17.1861L21.5625 18.5625C21.5634 18.6195 21.5793 18.6752 21.6086 18.7241C21.638 18.7729 21.6797 18.8132 21.7295 18.8408L23.0924 19.5949C23.1429 19.623 23.185 19.664 23.2143 19.7137C23.2437 19.7635 23.2592 19.8202 23.2594 19.8779V22.7256C23.2594 22.7878 23.2774 22.8487 23.3111 22.901C23.3449 22.9533 23.393 22.9947 23.4497 23.0203C23.5065 23.0459 23.5694 23.0546 23.6309 23.0454C23.6924 23.0361 23.75 23.0093 23.7967 22.9681C24.3463 22.4842 25.1344 21.7775 25.2393 21.6158C25.4127 21.3474 25.5754 21.0726 25.7274 20.7914C26.042 20.2086 26.3085 19.6012 26.5242 18.975C27.2672 16.824 26.6801 12.9574 26.3027 11.0027Z" fill="#1A4157"/>
<path d="M16.7811 17.7427L13.1876 15.0474C13.147 15.0169 13.0977 15.0005 13.0469 15.0005H11.3419C11.3127 15.0005 11.2838 14.9948 11.2569 14.9836C11.2299 14.9725 11.2054 14.9561 11.1848 14.9355L10.3809 14.1316C10.3592 14.1098 10.3333 14.0925 10.3048 14.0808C10.2764 14.069 10.2459 14.063 10.2151 14.063H7.09852C7.05459 14.063 7.01166 14.05 6.97514 14.0256C6.93862 14.0012 6.91015 13.9665 6.89334 13.9259C6.87654 13.8853 6.87214 13.8407 6.88071 13.7976C6.88928 13.7545 6.91043 13.715 6.94149 13.6839L7.43484 13.1905C7.45545 13.1699 7.47993 13.1535 7.50687 13.1424C7.53382 13.1312 7.56271 13.1255 7.59188 13.1255H9.48855C9.59071 13.1255 9.69006 13.0921 9.7715 13.0305C9.85295 12.9688 9.91201 12.8822 9.93972 12.7839L10.3434 11.3484C10.352 11.3175 10.3669 11.2887 10.387 11.2639C10.4072 11.239 10.4322 11.2185 10.4606 11.2036L12.0702 10.3751C12.1064 10.3564 12.1368 10.3281 12.158 10.2932C12.1791 10.2584 12.1903 10.2184 12.1903 10.1776V9.44523C12.1904 9.39978 12.2043 9.35543 12.2302 9.31808L13.0856 8.08644C13.1113 8.04944 13.1477 8.02121 13.1899 8.00558L14.387 7.55616C14.4293 7.54029 14.4658 7.51187 14.4916 7.4747C14.5173 7.43753 14.5311 7.39338 14.5311 7.34816V6.68019C14.5311 6.64356 14.5221 6.6075 14.5048 6.5752C14.4875 6.54291 14.4626 6.51537 14.4321 6.49503L13.2321 5.69699C13.1991 5.67529 13.161 5.66268 13.1216 5.66042C13.0822 5.65815 13.0429 5.66632 13.0077 5.68409L11.3741 6.50089C11.3367 6.51934 11.2949 6.52688 11.2535 6.52263C11.212 6.51838 11.1726 6.50252 11.1397 6.47687L10.3651 5.86456C10.3387 5.8433 10.3175 5.81629 10.3031 5.78557C10.2887 5.75486 10.2815 5.72126 10.282 5.68735C10.2826 5.65343 10.2909 5.62009 10.3063 5.58988C10.3217 5.55966 10.3438 5.53337 10.371 5.513L11.0003 5.04952C11.0288 5.02863 11.0518 5.00122 11.0676 4.96959C11.0833 4.93796 11.0913 4.90302 11.0907 4.8677C11.0902 4.83237 11.0813 4.79768 11.0646 4.76652C11.0479 4.73536 11.0241 4.70864 10.995 4.68859L10.0147 4.0048C9.98079 3.98091 9.94082 3.96703 9.89938 3.96475C9.85795 3.96247 9.8167 3.97188 9.78035 3.99191C9.42586 4.18585 8.38582 4.76007 8.01668 5.01847C6.30873 6.2162 4.93422 7.82948 4.02294 9.70597C3.9163 9.92628 3.78446 10.1507 3.77157 10.3927C3.75868 10.6347 3.56883 11.1749 3.48973 11.3935C3.47906 11.423 3.4748 11.4545 3.47722 11.4858C3.47965 11.5171 3.48871 11.5476 3.5038 11.5751L5.595 15.4177C5.61382 15.4526 5.64177 15.4818 5.67586 15.5021L7.87606 16.8228C7.9046 16.8398 7.92895 16.863 7.94731 16.8907C7.96567 16.9184 7.97756 16.9498 7.98211 16.9827L8.42273 20.1784C8.42704 20.2091 8.43765 20.2385 8.45388 20.2648C8.47012 20.2911 8.49163 20.3138 8.51707 20.3314L10.2339 21.5114C10.2836 21.5456 10.3182 21.5977 10.3305 21.6568L11.2411 25.981C11.2462 26.0064 11.2559 26.0306 11.2698 26.0525C11.3553 26.1907 11.6964 26.697 12.1077 26.772C12.0696 26.7825 12.0356 26.8066 11.9975 26.8177C12.0963 26.8351 12.1941 26.8578 12.2905 26.8857C12.4077 26.9173 12.5249 26.9443 12.6421 26.9694C12.8255 27.0058 12.8436 27.0339 12.9315 26.871C13.0487 26.653 13.1829 26.578 13.2831 26.5511C13.3244 26.5416 13.3623 26.5206 13.3922 26.4905C13.4222 26.4604 13.443 26.4225 13.4524 26.3812L14.0425 23.646C14.0549 23.5887 14.0883 23.5381 14.1362 23.5042L16.7729 21.6351C16.8036 21.6134 16.8285 21.5847 16.8458 21.5513C16.863 21.518 16.872 21.481 16.8719 21.4435V17.9302C16.8723 17.894 16.8643 17.8583 16.8485 17.8258C16.8328 17.7933 16.8097 17.7648 16.7811 17.7427Z" fill="#1A4157"/>
<path d="M15.3515 2.8125C15.3515 2.8125 15.1376 2.8248 15.0943 2.82598C14.7767 2.83535 14.4599 2.85723 14.1439 2.8916C12.9919 3.01658 11.8636 3.30563 10.7935 3.75C10.9358 3.84844 10.6909 3.93867 10.6909 3.93867L11.0741 4.6875H13.1249L14.5312 5.39062L15.7616 4.6875L15.3515 2.8125Z" fill="#1A4157"/>
<path d="M20.7556 7.03508L21.6995 6.21477C21.7291 6.18913 21.7517 6.15649 21.7654 6.11985C21.7791 6.0832 21.7834 6.04371 21.778 6.00497C21.7725 5.96623 21.7574 5.92948 21.7341 5.89806C21.7107 5.86665 21.6799 5.84157 21.6444 5.82512L20.5423 5.3136C20.4863 5.28748 20.4223 5.28453 20.3641 5.30537C20.306 5.32622 20.2584 5.36919 20.2317 5.42493L19.7776 6.37473C19.7529 6.42666 19.7482 6.48586 19.7643 6.54107C19.7804 6.59628 19.8162 6.64364 19.8649 6.67414L20.4778 7.05735C20.5204 7.08384 20.5704 7.09597 20.6204 7.09197C20.6704 7.08796 20.7177 7.06802 20.7556 7.03508Z" fill="#1A4157"/>
<path d="M25.1743 8.24288L24.8327 7.71554C24.8274 7.70734 24.8227 7.69914 24.818 7.69035C24.7565 7.56437 24.2473 6.53605 23.8219 6.13703C23.5026 5.83527 23.4118 5.92199 23.3866 5.98879C23.3722 6.02573 23.3481 6.05811 23.3169 6.08254L21.627 7.44835C21.5854 7.48203 21.5335 7.50043 21.48 7.5005H20.6052C20.5744 7.50048 20.5439 7.50652 20.5154 7.51828C20.487 7.53005 20.4611 7.5473 20.4393 7.56906L19.7362 8.27218C19.7144 8.29395 19.6971 8.3198 19.6853 8.34825C19.6736 8.3767 19.6675 8.4072 19.6675 8.438C19.6675 8.4688 19.6736 8.4993 19.6853 8.52775C19.6971 8.5562 19.7144 8.58205 19.7362 8.60382L20.4393 9.30694C20.4611 9.3287 20.487 9.34595 20.5154 9.35772C20.5439 9.36948 20.5744 9.37552 20.6052 9.3755H25.0096C25.0413 9.37553 25.0726 9.36915 25.1017 9.35675C25.1308 9.34436 25.1571 9.3262 25.179 9.30337C25.2009 9.28054 25.2179 9.25351 25.2291 9.22392C25.2403 9.19432 25.2454 9.16277 25.244 9.13116L25.2118 8.36066C25.2101 8.31875 25.1971 8.27808 25.1743 8.24288Z" fill="#1A4157"/>
<path d="M15 4.21875C17.4943 4.21854 19.9115 5.08321 21.8398 6.66543C23.768 8.24765 25.088 10.4495 25.5748 12.8959C26.0616 15.3422 25.6851 17.8817 24.5095 20.0815C23.3338 22.2814 21.4318 24.0056 19.1274 24.9603C16.823 25.915 14.2589 26.0411 11.872 25.3172C9.48501 24.5933 7.4229 23.0642 6.037 20.9903C4.6511 18.9165 4.02716 16.4262 4.2715 13.9439C4.51583 11.4616 5.61331 9.1408 7.37695 7.37695C8.37561 6.37259 9.56359 5.5763 10.8721 5.03419C12.1806 4.49208 13.5836 4.21492 15 4.21875ZM15 1.875C7.75195 1.875 1.875 7.75195 1.875 15C1.875 22.248 7.75195 28.125 15 28.125C22.248 28.125 28.125 22.248 28.125 15C28.125 7.75195 22.248 1.875 15 1.875Z" fill="#1A4157"/>
</svg>
