<svg width="24" height="24" viewBox="0 0 24 24" fill="none" xmlns="http://www.w3.org/2000/svg">
<path d="M12 1.96875C10.4119 1.96875 9 1.5 9 1.5V1.59375C9 2.3894 9.31607 3.15246 9.87868 3.71507C10.4413 4.27768 11.2044 4.59375 12 4.59375C12.7956 4.59375 13.5587 4.27768 14.1213 3.71507C14.6839 3.15246 15 2.3894 15 1.59375V1.5C15 1.5 13.5881 1.96875 12 1.96875Z" fill="#044708"/>
<path d="M16.5 2.0625C16.2427 4.30125 14.3067 6.04688 12 6.04688C9.69328 6.04688 7.75734 4.30125 7.5 2.0625L0.75 4.40625L1.59375 9.75L4.48641 10.0978C4.81828 10.14 4.81922 10.14 4.81922 10.4817L4.5 22.5H19.5L19.1808 10.4817C19.1709 10.1536 19.1709 10.1536 19.5136 10.0978L22.4062 9.75L23.25 4.40625L16.5 2.0625Z" fill="#044708"/>
</svg>
