<svg width="361" height="257" viewBox="0 0 361 257" fill="none" xmlns="http://www.w3.org/2000/svg">
<circle cx="67" cy="61" r="44" fill="#112E51"/>
<g clip-path="url(#clip0_1251_8085)">
<path d="M88.578 59.9842L92.286 46.1456C92.4654 45.4845 92.5124 44.7945 92.4244 44.1152C92.3364 43.4359 92.1151 42.7807 91.7732 42.1871C91.4313 41.5936 90.9755 41.0734 90.4321 40.6564C89.8886 40.2394 89.2682 39.9339 88.6063 39.7574L74.7756 36.0515C73.8682 35.8103 72.9024 35.9367 72.0876 36.4032L37.0308 56.6366C35.8342 57.33 34.9614 58.4694 34.6035 59.8052C34.2455 61.141 34.4317 62.5642 35.1213 63.7629L44.7576 80.4536C45.4506 81.6502 46.5898 82.5232 47.9255 82.8811C49.2612 83.239 50.6843 83.0526 51.8828 82.3627L86.9293 62.1362C87.7409 61.664 88.3333 60.8907 88.578 59.9842ZM78.977 52.6123C78.2649 52.4215 77.6254 52.0238 77.1394 51.4695C76.6533 50.9153 76.3425 50.2294 76.2463 49.4985C76.1501 48.7676 76.2727 48.0246 76.5988 47.3635C76.9248 46.7023 77.4396 46.1527 78.078 45.7841C78.7165 45.4155 79.4498 45.2445 80.1855 45.2927C80.9211 45.3409 81.6259 45.6062 82.2107 46.0549C82.7956 46.5037 83.2342 47.1158 83.4712 47.8139C83.7081 48.512 83.7328 49.2646 83.542 49.9767C83.2861 50.9315 82.6614 51.7456 81.8053 52.2399C80.9492 52.7342 79.9318 52.8681 78.977 52.6123Z" fill="white"/>
<path d="M97.5901 47.9534C97.1127 47.8255 96.604 47.8925 96.1759 48.1396C95.7479 48.3867 95.4355 48.7938 95.3076 49.2712L91.4678 63.6014L54.1903 85.1246C53.9718 85.2434 53.7792 85.4048 53.624 85.5992C53.4688 85.7936 53.3541 86.0171 53.2867 86.2565C53.2192 86.4959 53.2004 86.7465 53.2313 86.9933C53.2622 87.2401 53.3422 87.4782 53.4665 87.6937C53.5909 87.9091 53.7572 88.0974 53.9555 88.2476C54.1538 88.3978 54.3802 88.5067 54.6212 88.568C54.8623 88.6293 55.1132 88.6417 55.3592 88.6045C55.6052 88.5673 55.8412 88.4813 56.0533 88.3514L93.429 66.7726C93.827 66.5416 94.1751 66.2339 94.4532 65.8673C94.7313 65.5007 94.9339 65.0825 95.0491 64.637L98.9079 50.2359C99.0358 49.7585 98.9688 49.2498 98.7217 48.8217C98.4746 48.3937 98.0675 48.0814 97.5901 47.9534Z" fill="white"/>
<g clip-path="url(#clip1_1251_8085)">
<path d="M57.0404 70.9298L55.2231 67.7822L52.0756 69.5995L53.8928 72.7471L57.0404 70.9298Z" fill="#1B263B"/>
<path d="M57.7414 66.3286L56.2876 63.8105L53.7695 65.2644L55.2233 67.7824L57.7414 66.3286Z" fill="#1B263B"/>
<path d="M55.3469 75.2651L53.8931 72.7471L51.375 74.2009L52.8288 76.7189L55.3469 75.2651Z" fill="#1B263B"/>
<path d="M61.0122 71.994L59.9219 70.1055L58.0333 71.1958L59.1237 73.0844L61.0122 71.994Z" fill="#1B263B"/>
<path d="M51.0825 69.3329L49.9922 67.4443L48.1036 68.5347L49.194 70.4232L51.0825 69.3329Z" fill="#1B263B"/>
<path d="M66.4833 65.4777L64.666 62.3301L61.5184 64.1473L63.3357 67.2949L66.4833 65.4777Z" fill="#1B263B"/>
<path d="M62.2711 71.267L57.5463 63.0833L65.73 58.3584L70.4548 66.5421L62.2711 71.267ZM60.2769 63.8149L63.0028 68.5363L67.7242 65.8104L64.9983 61.0891L60.2769 63.8149Z" fill="#1B263B"/>
<path d="M61.0316 56.0353L59.2144 52.8877L56.0668 54.705L57.884 57.8525L61.0316 56.0353Z" fill="#1B263B"/>
<path d="M56.8195 61.8246L52.0946 53.6409L60.2783 48.916L65.0032 57.0997L56.8195 61.8246ZM54.8253 54.3726L57.5512 59.0939L62.2725 56.3681L59.5466 51.6467L54.8253 54.3726Z" fill="#1B263B"/>
<path d="M51.5887 61.4864L49.7715 58.3389L46.6239 60.1561L48.4412 63.3037L51.5887 61.4864Z" fill="#1B263B"/>
<path d="M47.3766 67.2758L42.6517 59.0921L50.8354 54.3672L55.5603 62.5509L47.3766 67.2758ZM45.3824 59.8237L48.1083 64.5451L52.8297 61.8192L50.1038 57.0978L45.3824 59.8237Z" fill="#1B263B"/>
</g>
</g>
<circle cx="241.5" cy="136.5" r="136.5" fill="white"/>
<path d="M266.405 39.4971C279.616 53.1849 293.795 61.786 307.367 63.1468L295.908 82.9947L254.946 59.3449L266.405 39.4971Z" fill="#141D2F"/>
<path d="M325.049 92.4996L331.172 96.0349C334.754 99.7839 335.807 115.492 337.027 153.187C323.921 158.536 316.462 158.745 303.123 153.883C299.616 144.647 297.681 139.487 292.888 129.674L325.049 92.4996Z" fill="#243850"/>
<path d="M224.965 34.7162L218.842 31.1809C213.804 29.9539 199.674 36.8956 166.42 54.687C168.34 68.711 171.889 75.2757 182.769 84.3965C192.52 82.8153 197.956 81.9111 208.851 81.1558L224.965 34.7162Z" fill="#243850"/>
<path d="M219.686 31.6686C242.053 37.6224 252.672 39.6086 266.827 39.7412C261.868 53.2068 263.635 63.7992 276.727 71.3574C287.282 77.4513 297.519 74.3531 306.734 62.7815C314.329 76.4629 319.953 83.7302 331.383 96.1568C283.534 143.674 261.43 178.798 231.428 247.342C222.427 251.21 200.646 239.02 138.838 197.546C186.227 129.592 204.249 93.1253 219.686 31.6686Z" fill="#1B263B"/>
<g clip-path="url(#clip2_1251_8085)">
<path d="M281.909 66.343L280.523 65.543L279.723 66.9286L281.109 67.7286L281.909 66.343Z" fill="white"/>
<path d="M281.163 64.4349L280.055 63.7949L279.415 64.9034L280.523 65.5435L281.163 64.4349Z" fill="white"/>
<path d="M282.217 68.3685L281.109 67.7285L280.469 68.837L281.577 69.477L282.217 68.3685Z" fill="white"/>
<path d="M283.658 65.8745L282.826 65.3945L282.346 66.2259L283.178 66.7059L283.658 65.8745Z" fill="white"/>
<path d="M279.286 67.0454L278.455 66.5654L277.975 67.3968L278.806 67.8768L279.286 67.0454Z" fill="white"/>
<path d="M284.309 62.1857L282.923 61.3857L282.123 62.7714L283.509 63.5714L284.309 62.1857Z" fill="white"/>
<path d="M283.977 65.3204L280.375 63.2404L282.455 59.6377L286.057 61.7177L283.977 65.3204ZM281.577 62.9183L283.655 64.1183L284.855 62.0398L282.777 60.8398L281.577 62.9183Z" fill="white"/>
<path d="M280.152 59.7863L278.766 58.9863L277.966 60.372L279.352 61.172L280.152 59.7863Z" fill="white"/>
<path d="M279.821 62.92L276.218 60.84L278.298 57.2373L281.901 59.3173L279.821 62.92ZM277.42 60.5179L279.498 61.7179L280.698 59.6394L278.62 58.4394L277.42 60.5179Z" fill="white"/>
<path d="M277.752 63.9426L276.366 63.1426L275.566 64.5282L276.952 65.3282L277.752 63.9426Z" fill="white"/>
<path d="M277.421 67.0773L273.818 64.9972L275.898 61.3945L279.501 63.4746L277.421 67.0773ZM275.02 64.6751L277.099 65.8751L278.299 63.7967L276.22 62.5966L275.02 64.6751Z" fill="white"/>
</g>
<circle cx="27.575" cy="117.834" r="16.5" transform="rotate(-15 27.575 117.834)" fill="#002C61"/>
<circle cx="10.4103" cy="92.4108" r="8.5" transform="rotate(-15 10.4103 92.4108)" fill="white"/>
<defs>
<clipPath id="clip0_1251_8085">
<rect width="59.6364" height="59.6364" fill="white" transform="translate(43.7153 25.7998) rotate(15)"/>
</clipPath>
<clipPath id="clip1_1251_8085">
<rect width="23.2609" height="23.2609" fill="white" transform="translate(60.8105 46.9297) rotate(60)"/>
</clipPath>
<clipPath id="clip2_1251_8085">
<rect width="10.2401" height="10.2401" fill="white" transform="translate(278.063 56.3633) rotate(30)"/>
</clipPath>
</defs>
</svg>
