<svg width="630" height="630" viewBox="0 0 630 630" fill="none" xmlns="http://www.w3.org/2000/svg">
<g filter="url(#filter0_d_4079_13359)">
<circle cx="315" cy="311" r="275" fill="#72AA45"/>
</g>
<path d="M323.863 486.633L323.219 486.528C323.309 486.598 323.415 486.644 323.528 486.662C323.64 486.681 323.756 486.67 323.863 486.633V486.633Z" fill="white"/>
<path d="M470.413 256.038C470.229 255.065 469.726 254.183 468.983 253.529C468.24 252.876 467.3 252.489 466.312 252.431C465.325 252.373 464.346 252.646 463.531 253.207C462.717 253.769 462.113 254.586 461.816 255.53V255.53C461.532 256.426 460.971 257.209 460.214 257.766C459.457 258.323 458.543 258.626 457.603 258.632H445.139C444.333 258.633 443.541 258.413 442.851 257.995L424.82 247.183C424.13 246.766 423.339 246.546 422.532 246.547H393.689C392.811 246.546 391.953 246.807 391.224 247.296L355.654 271.007C355.039 271.416 354.536 271.972 354.19 272.625C353.844 273.278 353.666 274.006 353.672 274.745V308.373C353.671 309.179 353.89 309.97 354.304 310.662C354.718 311.353 355.313 311.918 356.025 312.297L402.664 337.192C403.365 337.569 403.953 338.126 404.366 338.806C404.78 339.486 405.004 340.264 405.017 341.059L405.235 359.984C405.247 360.768 405.466 361.534 405.869 362.206C406.272 362.878 406.845 363.431 407.531 363.811L426.27 374.18C426.965 374.566 427.544 375.13 427.947 375.814C428.351 376.498 428.565 377.277 428.567 378.071V417.227C428.567 418.082 428.814 418.92 429.278 419.639C429.742 420.357 430.404 420.927 431.184 421.279C431.964 421.631 432.829 421.751 433.675 421.624C434.521 421.496 435.313 421.128 435.954 420.562C443.512 413.907 454.348 404.191 455.79 401.967C458.175 398.277 460.412 394.499 462.501 390.632C466.828 382.619 470.492 374.266 473.458 365.656C483.674 336.08 475.601 282.914 470.413 256.038Z" fill="white"/>
<path d="M339.492 348.712L290.081 311.651C289.523 311.233 288.845 311.007 288.147 311.007H264.703C264.302 311.007 263.904 310.929 263.534 310.775C263.163 310.622 262.827 310.397 262.544 310.113L251.49 299.059C251.19 298.76 250.835 298.523 250.444 298.361C250.052 298.199 249.633 298.116 249.21 298.116H206.357C205.753 298.116 205.162 297.937 204.66 297.602C204.158 297.266 203.767 296.789 203.535 296.231C203.304 295.673 203.244 295.059 203.362 294.467C203.48 293.875 203.77 293.331 204.197 292.904L210.981 286.12C211.264 285.836 211.601 285.611 211.971 285.457C212.342 285.304 212.739 285.225 213.14 285.226H239.22C240.624 285.226 241.99 284.767 243.11 283.919C244.23 283.071 245.042 281.881 245.423 280.529L250.974 260.79C251.093 260.366 251.297 259.97 251.574 259.628C251.851 259.286 252.195 259.004 252.586 258.8L274.717 247.408C275.215 247.15 275.633 246.761 275.924 246.282C276.215 245.803 276.369 245.253 276.369 244.693V234.622C276.37 233.997 276.561 233.387 276.917 232.874L288.679 215.939C289.032 215.43 289.533 215.042 290.113 214.827L306.573 208.647C307.155 208.429 307.657 208.038 308.011 207.527C308.365 207.016 308.555 206.409 308.555 205.787V196.603C308.555 196.099 308.431 195.603 308.193 195.159C307.956 194.715 307.612 194.336 307.193 194.057L290.693 183.084C290.24 182.785 289.716 182.612 289.174 182.581C288.633 182.55 288.092 182.662 287.608 182.906L265.146 194.137C264.632 194.391 264.057 194.495 263.487 194.436C262.917 194.378 262.375 194.16 261.923 193.807L251.272 185.388C250.909 185.095 250.617 184.724 250.419 184.302C250.221 183.879 250.122 183.417 250.13 182.951C250.138 182.485 250.252 182.026 250.464 181.611C250.676 181.195 250.98 180.834 251.353 180.554L260.006 174.181C260.397 173.894 260.715 173.517 260.931 173.082C261.147 172.647 261.257 172.167 261.25 171.681C261.242 171.195 261.119 170.718 260.89 170.29C260.661 169.861 260.333 169.494 259.933 169.218L246.454 159.816C245.988 159.487 245.438 159.297 244.868 159.265C244.299 159.234 243.732 159.363 243.232 159.639C238.358 162.305 224.057 170.201 218.981 173.754C195.497 190.223 176.598 212.405 164.067 238.207C162.601 241.236 160.788 244.322 160.611 247.649C160.434 250.977 157.823 258.405 156.736 261.41C156.589 261.816 156.53 262.249 156.564 262.68C156.597 263.11 156.722 263.529 156.929 263.908L185.683 316.743C185.942 317.223 186.326 317.624 186.795 317.903L217.048 336.063C217.44 336.297 217.775 336.616 218.027 336.997C218.28 337.377 218.443 337.81 218.506 338.263L224.565 382.203C224.624 382.625 224.77 383.029 224.993 383.391C225.216 383.753 225.512 384.064 225.862 384.306L249.468 400.532C250.151 401.002 250.628 401.718 250.797 402.53L263.317 461.988C263.387 462.337 263.521 462.671 263.712 462.971C264.888 464.873 269.577 471.834 275.233 472.865C274.709 473.01 274.242 473.34 273.718 473.493C275.077 473.732 276.421 474.044 277.746 474.428C279.358 474.863 280.969 475.233 282.58 475.58C285.102 476.079 285.352 476.466 286.56 474.226C288.172 471.229 290.017 470.198 291.394 469.827C291.963 469.696 292.483 469.408 292.895 468.994C293.307 468.581 293.594 468.06 293.723 467.491L301.836 429.883C302.006 429.094 302.466 428.399 303.125 427.933L339.38 402.232C339.801 401.934 340.144 401.539 340.381 401.081C340.618 400.622 340.742 400.114 340.741 399.598V351.29C340.746 350.793 340.636 350.302 340.419 349.855C340.202 349.407 339.885 349.016 339.492 348.712V348.712Z" fill="white"/>
<path d="M319.835 143.422C319.835 143.422 316.894 143.591 316.298 143.607C311.931 143.736 307.575 144.037 303.23 144.51C287.39 146.228 271.877 150.202 257.162 156.312C259.12 157.666 255.752 158.907 255.752 158.907L261.021 169.203H289.219L308.555 178.871L325.474 169.203L319.835 143.422Z" fill="white"/>
<path d="M394.138 201.482L407.118 190.203C407.524 189.85 407.835 189.402 408.024 188.898C408.212 188.394 408.271 187.851 408.196 187.318C408.121 186.786 407.913 186.28 407.593 185.848C407.272 185.416 406.848 185.072 406.36 184.845L391.206 177.812C390.436 177.453 389.555 177.412 388.756 177.699C387.956 177.985 387.302 178.576 386.936 179.343L380.692 192.402C380.352 193.116 380.286 193.93 380.508 194.69C380.729 195.449 381.222 196.1 381.892 196.519L390.319 201.788C390.905 202.153 391.592 202.32 392.279 202.264C392.967 202.209 393.618 201.935 394.138 201.482Z" fill="white"/>
<path d="M454.896 218.089L450.199 210.838C450.127 210.725 450.062 210.612 449.998 210.491C449.152 208.759 442.151 194.62 436.302 189.133C431.911 184.984 430.662 186.177 430.316 187.095C430.117 187.603 429.786 188.048 429.357 188.384L406.122 207.164C405.549 207.627 404.836 207.88 404.099 207.881H392.071C391.648 207.881 391.228 207.964 390.837 208.126C390.446 208.287 390.09 208.525 389.791 208.824L380.123 218.492C379.823 218.791 379.586 219.146 379.423 219.538C379.261 219.929 379.178 220.348 379.178 220.772C379.178 221.195 379.261 221.615 379.423 222.006C379.586 222.397 379.823 222.752 380.123 223.052L389.791 232.72C390.09 233.019 390.446 233.256 390.837 233.418C391.228 233.58 391.648 233.663 392.071 233.662H452.632C453.067 233.663 453.498 233.575 453.898 233.405C454.298 233.234 454.66 232.984 454.961 232.671C455.262 232.357 455.497 231.985 455.65 231.578C455.804 231.171 455.874 230.737 455.855 230.303L455.412 219.708C455.388 219.132 455.21 218.573 454.896 218.089Z" fill="white"/>
<path d="M315 162.758C349.297 162.755 382.533 174.644 409.047 196.4C435.56 218.155 453.71 248.431 460.404 282.068C467.097 315.705 461.921 350.623 445.755 380.871C429.59 411.119 403.437 434.827 371.752 447.954C340.067 461.081 304.81 462.815 271.99 452.862C239.169 442.908 210.815 421.882 191.759 393.367C172.703 364.851 164.124 330.611 167.483 296.479C170.843 262.347 185.933 230.436 210.183 206.183C223.915 192.373 240.249 181.424 258.241 173.97C276.233 166.516 295.525 162.705 315 162.758V162.758ZM315 130.531C215.339 130.531 134.531 211.339 134.531 311C134.531 410.661 215.339 491.469 315 491.469C414.661 491.469 495.469 410.661 495.469 311C495.469 211.339 414.661 130.531 315 130.531Z" fill="white"/>
<defs>
<filter id="filter0_d_4079_13359" x="0" y="0" width="630" height="630" filterUnits="userSpaceOnUse" color-interpolation-filters="sRGB">
<feFlood flood-opacity="0" result="BackgroundImageFix"/>
<feColorMatrix in="SourceAlpha" type="matrix" values="0 0 0 0 0 0 0 0 0 0 0 0 0 0 0 0 0 0 127 0" result="hardAlpha"/>
<feOffset dy="4"/>
<feGaussianBlur stdDeviation="20"/>
<feComposite in2="hardAlpha" operator="out"/>
<feColorMatrix type="matrix" values="0 0 0 0 0.258824 0 0 0 0 0.278431 0 0 0 0 0.298039 0 0 0 0.15 0"/>
<feBlend mode="normal" in2="BackgroundImageFix" result="effect1_dropShadow_4079_13359"/>
<feBlend mode="normal" in="SourceGraphic" in2="effect1_dropShadow_4079_13359" result="shape"/>
</filter>
</defs>
</svg>
