<svg width="85" height="129" viewBox="0 0 85 129" fill="none" xmlns="http://www.w3.org/2000/svg">
<path d="M38.4723 111.209C27.7726 111.613 23.016 101.263 24.1942 92.7935C31.4116 99.0914 36.9968 101.917 38.4723 111.209Z" fill="#E08F2E" fill-opacity="0.9"/>
<path d="M47.3012 103.801C36.6612 105 31.1478 95.0317 31.6928 86.4984C39.3586 92.242 45.1385 94.6448 47.3012 103.801Z" fill="#E08F2E" fill-opacity="0.9"/>
<path d="M52.8511 93.9812C42.3895 96.2622 35.8854 86.91 35.5547 78.3657C43.7679 83.2951 49.7632 85.0941 52.8511 93.9812Z" fill="#E08F2E" fill-opacity="0.9"/>
<path d="M56.0024 83.726C45.6208 86.3471 38.815 77.2121 38.2057 68.6832C46.5753 73.3419 52.6262 74.9443 56.0024 83.726Z" fill="#E08F2E" fill-opacity="0.9"/>
<path d="M57.2088 72.364C47.0249 75.6712 39.6255 67.0101 38.4491 58.5408C47.1106 62.6313 53.2548 63.8269 57.2088 72.364Z" fill="#E08F2E" fill-opacity="0.9"/>
<path d="M57.234 74.0653C65.5709 80.7843 77.8114 68.261 75.7742 62.942C68.7634 68.1027 61.6648 66.4533 57.234 74.0653Z" fill="#E08F2E" fill-opacity="0.9"/>
<path d="M56.4659 60.9408C66.082 65.65 75.2504 50.7301 72.0876 45.9932C66.3914 52.5764 59.1038 52.5375 56.4659 60.9408Z" fill="#E08F2E" fill-opacity="0.9"/>
<path d="M55.3692 85.8284C62.3975 93.9062 76.6458 83.7253 75.5737 78.1314C67.766 81.9816 61.067 79.1121 55.3692 85.8284Z" fill="#E08F2E" fill-opacity="0.9"/>
<path d="M51.5308 96.593C58.5591 104.671 72.8074 94.49 71.7353 88.896C63.9276 92.7463 57.2286 89.8768 51.5308 96.593Z" fill="#E08F2E" fill-opacity="0.9"/>
<path d="M44.7592 105.552C49.7537 115.024 65.9529 108.371 66.1887 102.681C57.7073 104.643 51.8422 100.317 44.7592 105.552Z" fill="#E08F2E" fill-opacity="0.9"/>
<path d="M35.8279 112.804C38.2505 123.234 55.6086 120.919 57.2834 115.475C48.5818 115.217 44.009 109.542 35.8279 112.804Z" fill="#E08F2E" fill-opacity="0.9"/>
<path d="M56.6038 58.162C47.6076 63.9685 38.2357 57.493 34.9281 49.608C44.3486 51.3422 50.594 50.9233 56.6038 58.162Z" fill="#E08F2E" fill-opacity="0.9"/>
<path d="M52.308 48.8464C62.798 50.9927 67.9304 34.2499 63.6804 30.4579C59.8178 38.2595 52.7535 40.0501 52.308 48.8464Z" fill="#E08F2E" fill-opacity="0.9"/>
<path d="M52.2205 46.604C43.9901 53.453 33.9057 48.1548 29.6714 40.7262C39.2324 41.3118 45.3817 40.1428 52.2205 46.604Z" fill="#E08F2E" fill-opacity="0.9"/>
<path d="M45.768 36.71C56.4712 37.007 58.6261 19.6282 53.7836 16.6297C51.3306 24.9824 44.6832 27.9695 45.768 36.71Z" fill="#E08F2E" fill-opacity="0.9"/>
<path d="M36.7403 27.3698C47.1848 25.0116 44.9766 7.63953 39.5431 5.93119C39.2312 14.631 33.5285 19.1687 36.7403 27.3698Z" fill="#E08F2E" fill-opacity="0.9"/>
<path d="M46.0501 35.734C38.9467 43.7459 28.1786 40.0291 22.8725 33.324C32.4124 32.4611 38.3151 30.3781 46.0501 35.734Z" fill="#E08F2E" fill-opacity="0.9"/>
<path d="M29.5418 21.7618C19.645 25.8486 11.5963 17.7873 9.76678 9.43467C18.7193 12.8413 24.9378 13.5569 29.5418 21.7618Z" fill="#E08F2E" fill-opacity="0.9"/>
<path d="M35.9974 26.6102C29.2735 34.9431 18.3445 31.73 12.733 25.2783C22.2225 23.9736 28.0222 21.619 35.9974 26.6102Z" fill="#E08F2E" fill-opacity="0.9"/>
<path d="M28.4741 21.7988C56.7321 34.5404 78.3146 94.1976 26.4888 117.972" stroke="#E08F2E" stroke-width="2" stroke-linecap="round"/>
</svg>
