<svg width="85" height="129" viewBox="0 0 85 129" fill="none" xmlns="http://www.w3.org/2000/svg">
<path d="M45.7249 111.209C56.4247 111.613 61.1813 101.263 60.003 92.7935C52.7857 99.0914 47.2005 101.917 45.7249 111.209Z" fill="#E08F2E" fill-opacity="0.9"/>
<path d="M36.896 103.801C47.5361 105 53.0495 95.0317 52.5045 86.4984C44.8386 92.242 39.0587 94.6448 36.896 103.801Z" fill="#E08F2E" fill-opacity="0.9"/>
<path d="M31.3461 93.9812C41.8077 96.2622 48.3118 86.91 48.6425 78.3657C40.4294 83.2951 34.434 85.0941 31.3461 93.9812Z" fill="#E08F2E" fill-opacity="0.9"/>
<path d="M28.1949 83.726C38.5765 86.3471 45.3823 77.2121 45.9916 68.6832C37.622 73.3419 31.5711 74.9443 28.1949 83.726Z" fill="#E08F2E" fill-opacity="0.9"/>
<path d="M26.9885 72.364C37.1723 75.6712 44.5718 67.0101 45.7482 58.5408C37.0867 62.6313 30.9425 63.8269 26.9885 72.364Z" fill="#E08F2E" fill-opacity="0.9"/>
<path d="M26.9633 74.0653C18.6264 80.7843 6.38586 68.261 8.42302 62.942C15.4339 68.1027 22.5325 66.4533 26.9633 74.0653Z" fill="#E08F2E" fill-opacity="0.9"/>
<path d="M27.7314 60.9408C18.1152 65.65 8.94682 50.7301 12.1097 45.9932C17.8059 52.5764 25.0935 52.5375 27.7314 60.9408Z" fill="#E08F2E" fill-opacity="0.9"/>
<path d="M28.8281 85.8284C21.7998 93.9062 7.55145 83.7253 8.62356 78.1314C16.4313 81.9816 23.1303 79.1121 28.8281 85.8284Z" fill="#E08F2E" fill-opacity="0.9"/>
<path d="M32.6665 96.593C25.6382 104.671 11.3898 94.49 12.4619 88.896C20.2696 92.7463 26.9686 89.8768 32.6665 96.593Z" fill="#E08F2E" fill-opacity="0.9"/>
<path d="M39.438 105.552C34.4435 115.024 18.2443 108.371 18.0086 102.681C26.49 104.643 32.3551 100.317 39.438 105.552Z" fill="#E08F2E" fill-opacity="0.9"/>
<path d="M48.3694 112.804C45.9467 123.234 28.5886 120.919 26.9139 115.475C35.6155 115.217 40.1883 109.542 48.3694 112.804Z" fill="#E08F2E" fill-opacity="0.9"/>
<path d="M27.5934 58.162C36.5896 63.9685 45.9616 57.493 49.2692 49.608C39.8486 51.3422 33.6032 50.9233 27.5934 58.162Z" fill="#E08F2E" fill-opacity="0.9"/>
<path d="M31.8893 48.8464C21.3993 50.9927 16.2668 34.2499 20.5169 30.4579C24.3794 38.2595 31.4438 40.0501 31.8893 48.8464Z" fill="#E08F2E" fill-opacity="0.9"/>
<path d="M31.9768 46.604C40.2071 53.453 50.2916 48.1548 54.5258 40.7262C44.9649 41.3118 38.8156 40.1428 31.9768 46.604Z" fill="#E08F2E" fill-opacity="0.9"/>
<path d="M38.4293 36.71C27.726 37.007 25.5711 19.6282 30.4137 16.6297C32.8666 24.9824 39.514 27.9695 38.4293 36.71Z" fill="#E08F2E" fill-opacity="0.9"/>
<path d="M47.457 27.3698C37.0125 25.0116 39.2206 7.63953 44.6542 5.93119C44.9661 14.631 50.6688 19.1687 47.457 27.3698Z" fill="#E08F2E" fill-opacity="0.9"/>
<path d="M38.1472 35.734C45.2505 43.7459 56.0186 40.0291 61.3248 33.324C51.7849 32.4611 45.8822 30.3781 38.1472 35.734Z" fill="#E08F2E" fill-opacity="0.9"/>
<path d="M54.6555 21.7618C64.5522 25.8486 72.601 17.7873 74.4305 9.43467C65.4779 12.8413 59.2595 13.5569 54.6555 21.7618Z" fill="#E08F2E" fill-opacity="0.9"/>
<path d="M48.1999 26.6102C54.9238 34.9431 65.8528 31.73 71.4643 25.2783C61.9747 23.9736 56.1751 21.619 48.1999 26.6102Z" fill="#E08F2E" fill-opacity="0.9"/>
<path d="M55.7231 21.7988C27.4652 34.5404 5.88262 94.1976 57.7084 117.972" stroke="#E08F2E" stroke-width="2" stroke-linecap="round"/>
</svg>
