<svg width="24" height="24" viewBox="0 0 24 24" fill="none" xmlns="http://www.w3.org/2000/svg">
<path d="M3.59995 9.34384C3.5029 9.08546 3.21465 8.955 2.95611 9.05243C2.69758 9.14987 2.56667 9.43831 2.66372 9.69669L3.59995 9.34384ZM22.4684 9.93488C22.5647 9.67592 22.4329 9.38828 22.1741 9.29241C21.9152 9.19654 21.6274 9.32876 21.5311 9.58772L22.4684 9.93488ZM6.61934 18.8052L6.15122 18.9816L6.27275 19.3052L6.61858 19.3052L6.61934 18.8052ZM18.6379 18.8052L18.6372 19.3052C18.8464 19.3052 19.0336 19.1749 19.1066 18.9788L18.6379 18.8052ZM2.66372 9.69669L6.15122 18.9816L7.08745 18.6288L3.59995 9.34384L2.66372 9.69669ZM6.61858 19.3052L18.6372 19.3052L18.6387 18.3052L6.6201 18.3052L6.61858 19.3052ZM19.1066 18.9788L22.4684 9.93488L21.5311 9.58772L18.1693 18.6316L19.1066 18.9788Z" fill="#888888"/>
<path d="M4.69112 10.7447C6.02754 11.5876 6.88772 11.5277 8.56819 10.744C10.301 11.649 11.0472 11.3414 12.316 10.7434C13.8268 11.5495 14.7027 11.595 16.3222 10.7445C17.912 11.7389 18.7554 11.651 20.1991 10.7434" stroke="#888888" stroke-linecap="round" stroke-linejoin="round"/>
<path d="M14.4459 5.00025C15.7383 5.07238 18.4521 7.08095 18.4521 7.32147C18.4521 9.32758 16.2552 11.9639 16.2552 11.9639L14.1875 15.1403C14.1875 15.1403 13.5709 15.7474 13.2828 15.5069C12.9948 15.2663 13.1536 14.896 13.1536 14.896C13.1536 14.896 14.9629 12.3343 14.9629 12.2083C14.9629 11.9949 14.4459 11.9639 14.4459 11.9639L11.9905 15.7512C11.9905 15.7512 11.5274 16.4166 11.2151 16.2399C10.7833 15.9955 11.0859 15.5069 11.0859 15.5069C11.0859 15.5069 13.6705 11.8494 13.5413 11.7234C13.3842 11.5702 13.1536 11.4753 13.1536 11.4753L10.569 15.3847C10.569 15.3847 10.0354 16.2085 9.66435 15.9955C9.14735 15.6988 9.66435 15.0182 9.66435 15.0182C9.66435 15.0182 12.249 11.6012 12.249 11.2309C12.249 11.096 11.9905 10.9904 11.9905 10.9904L9.66435 14.163C9.66435 14.163 9.01807 15.0258 8.63042 14.6555C8.37198 14.4086 8.88895 13.6743 8.88895 13.6743L11.9905 9.27619C11.9905 9.27619 12.1495 8.71923 11.9905 8.421C11.732 7.93613 9.40581 10.3795 8.88895 9.88704C8.45756 9.47598 9.14742 8.90968 9.14742 8.90968C9.14742 8.90968 13.7998 4.96418 14.4459 5.00025Z" fill="#888888"/>
</svg>
