<svg width="24" height="24" viewBox="0 0 24 24" fill="none" xmlns="http://www.w3.org/2000/svg">
<path d="M3.60253 8.83269C3.51012 8.57247 3.22426 8.43642 2.96404 8.52882C2.70382 8.62122 2.56777 8.90708 2.66017 9.16731L3.60253 8.83269ZM22.3464 9.41906C22.4379 9.15853 22.3009 8.87312 22.0404 8.78157C21.7799 8.69002 21.4945 8.82699 21.4029 9.08752L22.3464 9.41906ZM6.59581 18.7568L6.12463 18.9241L6.24276 19.2568L6.59581 19.2568L6.59581 18.7568ZM18.535 18.7568L18.535 19.2568C18.7472 19.2568 18.9364 19.1228 19.0067 18.9225L18.535 18.7568ZM2.66017 9.16731L6.12463 18.9241L7.06699 18.5894L3.60253 8.83269L2.66017 9.16731ZM6.59581 19.2568L18.535 19.2568L18.535 18.2568L6.59581 18.2568L6.59581 19.2568ZM19.0067 18.9225L22.3464 9.41906L21.4029 9.08752L18.0633 18.591L19.0067 18.9225Z" fill="#888888"/>
<path d="M4.67992 10.2865C6.00751 11.1722 6.86201 11.1093 8.53138 10.2857C10.2528 11.2368 10.994 10.9136 12.2544 10.2852C13.7553 11.1322 14.6253 11.18 16.2342 10.2863C17.8134 11.3312 18.6513 11.2389 20.0854 10.2852" stroke="#888888" stroke-linecap="round" stroke-linejoin="round"/>
<path d="M9.26944 12.7591C9.47825 12.7605 9.68137 12.7974 9.87881 12.8699C10.0777 12.9409 10.2567 13.0574 10.4157 13.2193C10.5748 13.3798 10.7013 13.595 10.795 13.8649C10.8888 14.1348 10.9356 14.4686 10.9356 14.8663C10.9371 15.2413 10.8973 15.5765 10.8163 15.872C10.7368 16.166 10.6224 16.4146 10.4733 16.6177C10.3241 16.8209 10.1444 16.9757 9.93421 17.0822C9.72398 17.1888 9.48748 17.242 9.22469 17.242C8.94913 17.242 8.70481 17.1881 8.49174 17.0801C8.28009 16.9721 8.10893 16.8244 7.97824 16.6369C7.84756 16.4494 7.76731 16.2349 7.73748 15.9935H8.51518C8.55495 16.1667 8.63592 16.3045 8.75807 16.4068C8.88165 16.5077 9.03719 16.5581 9.22469 16.5581C9.52725 16.5581 9.76021 16.4267 9.92356 16.1639C10.0869 15.9011 10.1686 15.5361 10.1686 15.0687H10.1388C10.0692 15.1937 9.97896 15.3017 9.86816 15.3926C9.75736 15.4821 9.63165 15.551 9.49103 15.5993C9.35182 15.6476 9.2041 15.6717 9.04785 15.6717C8.79217 15.6717 8.56205 15.6106 8.35751 15.4885C8.15438 15.3663 7.99316 15.1987 7.87384 14.9856C7.75594 14.7726 7.69628 14.529 7.69486 14.2548C7.69486 13.9707 7.76021 13.7158 7.89089 13.4899C8.02299 13.2626 8.20694 13.0837 8.44273 12.953C8.67853 12.8209 8.9541 12.7562 9.26944 12.7591ZM9.27157 13.3983C9.11816 13.3983 8.97967 13.4359 8.85609 13.5112C8.73393 13.5851 8.63734 13.6859 8.56631 13.8138C8.49671 13.9402 8.46191 14.0815 8.46191 14.2378C8.46333 14.3926 8.49813 14.5332 8.56631 14.6596C8.63592 14.7861 8.73038 14.8862 8.84969 14.9601C8.97043 15.0339 9.10822 15.0709 9.26305 15.0709C9.3781 15.0709 9.48535 15.0489 9.58478 15.0048C9.68421 14.9608 9.77086 14.8997 9.84472 14.8216C9.92001 14.742 9.97825 14.6518 10.0194 14.551C10.0621 14.4501 10.0826 14.3436 10.0812 14.2314C10.0812 14.0822 10.0457 13.9444 9.97469 13.818C9.90509 13.6916 9.80921 13.59 9.68705 13.5133C9.56631 13.4366 9.42782 13.3983 9.27157 13.3983ZM13.1622 17.242C12.8781 17.242 12.6238 17.1888 12.3994 17.0822C12.175 16.9743 11.9967 16.8265 11.8646 16.639C11.7339 16.4515 11.6643 16.2371 11.6558 15.9956H12.4228C12.4371 16.1746 12.5145 16.3209 12.6551 16.4345C12.7957 16.5467 12.9648 16.6028 13.1622 16.6028C13.317 16.6028 13.4548 16.5673 13.5755 16.4963C13.6963 16.4253 13.7915 16.3265 13.8611 16.2001C13.9307 16.0737 13.9648 15.9295 13.9633 15.7676C13.9648 15.6028 13.9299 15.4565 13.8589 15.3287C13.7879 15.2008 13.6906 15.1007 13.567 15.0283C13.4434 14.9544 13.3014 14.9175 13.1409 14.9175C13.0102 14.916 12.8817 14.9402 12.7552 14.9899C12.6288 15.0396 12.5287 15.105 12.4548 15.1859L11.741 15.0687L11.969 12.8187H14.5003V13.4792H12.6231L12.4974 14.6362H12.523C12.604 14.541 12.7183 14.4622 12.866 14.3997C13.0138 14.3358 13.1757 14.3038 13.3518 14.3038C13.616 14.3038 13.8518 14.3663 14.0592 14.4913C14.2666 14.6149 14.4299 14.7854 14.5493 15.0027C14.6686 15.22 14.7282 15.4686 14.7282 15.7484C14.7282 16.0368 14.6615 16.2939 14.528 16.5197C14.3959 16.7442 14.2119 16.921 13.9761 17.0503C13.7417 17.1781 13.4704 17.242 13.1622 17.242ZM15.4378 14.1227V13.8969C15.4378 13.6937 15.4797 13.514 15.5635 13.3578C15.6487 13.2001 15.7687 13.0765 15.9236 12.9871C16.0784 12.8976 16.2616 12.8528 16.4733 12.8528C16.7929 12.8528 17.045 12.9508 17.2297 13.1469C17.4143 13.3415 17.5067 13.5915 17.5067 13.8969V14.1227C17.5067 14.3244 17.4655 14.5034 17.3831 14.6596C17.3007 14.8145 17.1828 14.9366 17.0294 15.0261C16.876 15.1142 16.6934 15.1582 16.4818 15.1582C16.1594 15.1582 15.9044 15.0616 15.7169 14.8685C15.5308 14.6739 15.4378 14.4253 15.4378 14.1227ZM15.9598 13.8969V14.1227C15.9598 14.2974 16.0031 14.4423 16.0898 14.5574C16.1764 14.671 16.3071 14.7278 16.4818 14.7278C16.6508 14.7278 16.7765 14.671 16.8589 14.5574C16.9427 14.4423 16.9846 14.2974 16.9846 14.1227V13.8969C16.9846 13.7264 16.9427 13.5822 16.8589 13.4643C16.7751 13.3464 16.6466 13.2875 16.4733 13.2875C16.3028 13.2875 16.1743 13.3464 16.0876 13.4643C16.0024 13.5822 15.9598 13.7264 15.9598 13.8969Z" fill="#888888"/>
</svg>
