<svg width="24" height="24" viewBox="0 0 24 24" fill="none" xmlns="http://www.w3.org/2000/svg">
<path d="M3.60253 8.83269C3.51012 8.57247 3.22426 8.43642 2.96404 8.52882C2.70382 8.62122 2.56777 8.90708 2.66017 9.16731L3.60253 8.83269ZM22.3464 9.41906C22.4379 9.15853 22.3009 8.87312 22.0404 8.78157C21.7799 8.69002 21.4945 8.82699 21.4029 9.08752L22.3464 9.41906ZM6.59581 18.7568L6.12463 18.9241L6.24276 19.2568L6.59581 19.2568L6.59581 18.7568ZM18.535 18.7568L18.535 19.2568C18.7472 19.2568 18.9364 19.1228 19.0067 18.9225L18.535 18.7568ZM2.66017 9.16731L6.12463 18.9241L7.06699 18.5894L3.60253 8.83269L2.66017 9.16731ZM6.59581 19.2568L18.535 19.2568L18.535 18.2568L6.59581 18.2568L6.59581 19.2568ZM19.0067 18.9225L22.3464 9.41906L21.4029 9.08752L18.0633 18.591L19.0067 18.9225Z" fill="#888888"/>
<path d="M4.67992 10.2865C6.00751 11.1722 6.86201 11.1093 8.53138 10.2857C10.2528 11.2368 10.994 10.9136 12.2544 10.2852C13.7553 11.1322 14.6253 11.18 16.2342 10.2863C17.8134 11.3312 18.6513 11.2389 20.0854 10.2852" stroke="#888888" stroke-linecap="round" stroke-linejoin="round"/>
<path d="M9.20925 17.242C8.90243 17.242 8.6297 17.1895 8.39106 17.0844C8.15385 16.9792 7.96635 16.8329 7.82856 16.6454C7.69078 16.4579 7.61763 16.2413 7.6091 15.9956H8.41024C8.41734 16.1135 8.45641 16.2165 8.52743 16.3045C8.59845 16.3912 8.69291 16.4587 8.81081 16.5069C8.92871 16.5552 9.06081 16.5794 9.20712 16.5794C9.36337 16.5794 9.50186 16.5524 9.6226 16.4984C9.74334 16.443 9.8378 16.3663 9.90598 16.2683C9.97416 16.1703 10.0075 16.0574 10.0061 15.9295C10.0075 15.7974 9.97345 15.681 9.90385 15.5801C9.83425 15.4792 9.73339 15.4004 9.60129 15.3436C9.47061 15.2868 9.31294 15.2584 9.12828 15.2584H8.74263V14.649H9.12828C9.28027 14.649 9.41308 14.6227 9.52672 14.5702C9.64177 14.5176 9.73197 14.4437 9.79731 14.3486C9.86266 14.252 9.89462 14.1405 9.8932 14.014C9.89462 13.8905 9.86692 13.7832 9.8101 13.6923C9.7547 13.6 9.67587 13.5283 9.57359 13.4771C9.47274 13.426 9.35413 13.4004 9.21777 13.4004C9.08425 13.4004 8.96067 13.4246 8.84703 13.4729C8.73339 13.5212 8.64177 13.59 8.57217 13.6795C8.50257 13.7676 8.46564 13.8727 8.46138 13.9949H7.70072C7.70641 13.7506 7.77672 13.5361 7.91166 13.3514C8.04802 13.1653 8.22984 13.0204 8.45712 12.9167C8.68439 12.8116 8.93936 12.7591 9.22203 12.7591C9.51322 12.7591 9.76606 12.8138 9.98055 12.9231C10.1965 13.0311 10.3634 13.1767 10.4813 13.3599C10.5992 13.5432 10.6581 13.7456 10.6581 13.9672C10.6595 14.2129 10.5871 14.4189 10.4408 14.5851C10.2959 14.7513 10.1056 14.8599 9.86976 14.9111V14.9452C10.1766 14.9878 10.4117 15.1014 10.575 15.2861C10.7398 15.4693 10.8215 15.6973 10.82 15.97C10.82 16.2143 10.7504 16.4331 10.6112 16.6263C10.4735 16.818 10.2831 16.9686 10.0402 17.078C9.79874 17.1873 9.52175 17.242 9.20925 17.242ZM13.1643 17.2655C12.8135 17.2655 12.5123 17.1767 12.2609 16.9991C12.0109 16.8202 11.8184 16.5623 11.6835 16.2257C11.55 15.8876 11.4832 15.4807 11.4832 15.0048C11.4846 14.529 11.5521 14.1241 11.6856 13.7903C11.8206 13.4551 12.013 13.1994 12.263 13.0233C12.5145 12.8471 12.8149 12.7591 13.1643 12.7591C13.5138 12.7591 13.8142 12.8471 14.0656 13.0233C14.317 13.1994 14.5095 13.4551 14.643 13.7903C14.778 14.1256 14.8454 14.5304 14.8454 15.0048C14.8454 15.4821 14.778 15.8898 14.643 16.2278C14.5095 16.5645 14.317 16.8216 14.0656 16.9991C13.8156 17.1767 13.5152 17.2655 13.1643 17.2655ZM13.1643 16.5986C13.4371 16.5986 13.6523 16.4643 13.8099 16.1959C13.969 15.926 14.0486 15.529 14.0486 15.0048C14.0486 14.6582 14.0123 14.367 13.9399 14.1312C13.8674 13.8954 13.7652 13.7179 13.6331 13.5986C13.501 13.4778 13.3447 13.4175 13.1643 13.4175C12.893 13.4175 12.6785 13.5524 12.5209 13.8223C12.3632 14.0908 12.2836 14.4849 12.2822 15.0048C12.2808 15.3528 12.3156 15.6454 12.3866 15.8827C12.4591 16.1199 12.5613 16.2989 12.6934 16.4196C12.8255 16.5389 12.9825 16.5986 13.1643 16.5986ZM15.5491 14.1227V13.8969C15.5491 13.6937 15.591 13.514 15.6748 13.3578C15.76 13.2001 15.8801 13.0765 16.0349 12.9871C16.1897 12.8976 16.373 12.8528 16.5846 12.8528C16.9042 12.8528 17.1563 12.9508 17.341 13.1469C17.5257 13.3415 17.618 13.5915 17.618 13.8969V14.1227C17.618 14.3244 17.5768 14.5034 17.4944 14.6596C17.412 14.8145 17.2941 14.9366 17.1407 15.0261C16.9873 15.1142 16.8048 15.1582 16.5931 15.1582C16.2707 15.1582 16.0157 15.0616 15.8282 14.8685C15.6421 14.6739 15.5491 14.4253 15.5491 14.1227ZM16.0711 13.8969V14.1227C16.0711 14.2974 16.1144 14.4423 16.2011 14.5574C16.2877 14.671 16.4184 14.7278 16.5931 14.7278C16.7622 14.7278 16.8879 14.671 16.9703 14.5574C17.0541 14.4423 17.096 14.2974 17.096 14.1227V13.8969C17.096 13.7264 17.0541 13.5822 16.9703 13.4643C16.8864 13.3464 16.7579 13.2875 16.5846 13.2875C16.4141 13.2875 16.2856 13.3464 16.1989 13.4643C16.1137 13.5822 16.0711 13.7264 16.0711 13.8969Z" fill="#888888"/>
</svg>
