<svg width="24" height="24" viewBox="0 0 24 24" fill="none" xmlns="http://www.w3.org/2000/svg">
<path d="M3.60253 8.83269C3.51012 8.57247 3.22426 8.43642 2.96404 8.52882C2.70382 8.62122 2.56777 8.90708 2.66017 9.16731L3.60253 8.83269ZM22.3464 9.41906C22.4379 9.15853 22.3009 8.87312 22.0404 8.78157C21.7799 8.69002 21.4945 8.82699 21.4029 9.08752L22.3464 9.41906ZM6.59581 18.7568L6.12463 18.9241L6.24276 19.2568L6.59581 19.2568L6.59581 18.7568ZM18.535 18.7568L18.535 19.2568C18.7472 19.2568 18.9364 19.1228 19.0067 18.9225L18.535 18.7568ZM2.66017 9.16731L6.12463 18.9241L7.06699 18.5894L3.60253 8.83269L2.66017 9.16731ZM6.59581 19.2568L18.535 19.2568L18.535 18.2568L6.59581 18.2568L6.59581 19.2568ZM19.0067 18.9225L22.3464 9.41906L21.4029 9.08752L18.0633 18.591L19.0067 18.9225Z" fill="#888888"/>
<path d="M4.67992 10.2865C6.00751 11.1722 6.86201 11.1093 8.53138 10.2857C10.2528 11.2368 10.994 10.9136 12.2544 10.2852C13.7553 11.1322 14.6253 11.18 16.2342 10.2863C17.8134 11.3312 18.6513 11.2389 20.0854 10.2852" stroke="#888888" stroke-linecap="round" stroke-linejoin="round"/>
<path d="M9.2159 17.242C8.93181 17.242 8.67755 17.1888 8.45312 17.0822C8.22869 16.9743 8.05042 16.8265 7.91832 16.639C7.78764 16.4515 7.71804 16.2371 7.70951 15.9956H8.47656C8.49076 16.1746 8.56818 16.3209 8.7088 16.4345C8.84943 16.5467 9.01846 16.6028 9.2159 16.6028C9.37073 16.6028 9.50852 16.5673 9.62926 16.4963C9.75 16.4253 9.84517 16.3265 9.91477 16.2001C9.98437 16.0737 10.0185 15.9295 10.017 15.7676C10.0185 15.6028 9.98366 15.4565 9.91264 15.3287C9.84162 15.2008 9.74431 15.1007 9.62073 15.0283C9.49715 14.9544 9.35511 14.9175 9.1946 14.9175C9.06392 14.916 8.93536 14.9402 8.80894 14.9899C8.68252 15.0396 8.58238 15.105 8.50852 15.1859L7.79474 15.0687L8.02272 12.8187H10.554V13.4792H8.67684L8.55113 14.6362H8.5767C8.65767 14.541 8.77201 14.4622 8.91974 14.3997C9.06747 14.3358 9.2294 14.3038 9.40554 14.3038C9.66974 14.3038 9.90554 14.3663 10.1129 14.4913C10.3203 14.6149 10.4837 14.7854 10.603 15.0027C10.7223 15.22 10.782 15.4686 10.782 15.7484C10.782 16.0368 10.7152 16.2939 10.5817 16.5197C10.4496 16.7442 10.2656 16.921 10.0298 17.0503C9.79545 17.1781 9.52414 17.242 9.2159 17.242ZM13.1087 17.2655C12.7578 17.2655 12.4567 17.1767 12.2053 16.9991C11.9553 16.8202 11.7628 16.5623 11.6278 16.2257C11.4943 15.8876 11.4276 15.4807 11.4276 15.0048C11.429 14.529 11.4964 14.1241 11.63 13.7903C11.7649 13.4551 11.9574 13.1994 12.2074 13.0233C12.4588 12.8471 12.7592 12.7591 13.1087 12.7591C13.4581 12.7591 13.7585 12.8471 14.0099 13.0233C14.2614 13.1994 14.4538 13.4551 14.5874 13.7903C14.7223 14.1256 14.7898 14.5304 14.7898 15.0048C14.7898 15.4821 14.7223 15.8898 14.5874 16.2278C14.4538 16.5645 14.2614 16.8216 14.0099 16.9991C13.7599 17.1767 13.4595 17.2655 13.1087 17.2655ZM13.1087 16.5986C13.3814 16.5986 13.5966 16.4643 13.7543 16.1959C13.9133 15.926 13.9929 15.529 13.9929 15.0048C13.9929 14.6582 13.9567 14.367 13.8842 14.1312C13.8118 13.8954 13.7095 13.7179 13.5774 13.5986C13.4453 13.4778 13.2891 13.4175 13.1087 13.4175C12.8374 13.4175 12.6229 13.5524 12.4652 13.8223C12.3075 14.0908 12.228 14.4849 12.2266 15.0048C12.2251 15.3528 12.2599 15.6454 12.331 15.8827C12.4034 16.1199 12.5057 16.2989 12.6378 16.4196C12.7699 16.5389 12.9268 16.5986 13.1087 16.5986ZM15.4934 14.1227V13.8969C15.4934 13.6937 15.5353 13.514 15.6191 13.3578C15.7044 13.2001 15.8244 13.0765 15.9792 12.9871C16.1341 12.8976 16.3173 12.8528 16.5289 12.8528C16.8485 12.8528 17.1007 12.9508 17.2853 13.1469C17.47 13.3415 17.5623 13.5915 17.5623 13.8969V14.1227C17.5623 14.3244 17.5211 14.5034 17.4387 14.6596C17.3564 14.8145 17.2385 14.9366 17.085 15.0261C16.9316 15.1142 16.7491 15.1582 16.5375 15.1582C16.215 15.1582 15.96 15.0616 15.7725 14.8685C15.5865 14.6739 15.4934 14.4253 15.4934 14.1227ZM16.0154 13.8969V14.1227C16.0154 14.2974 16.0588 14.4423 16.1454 14.5574C16.2321 14.671 16.3627 14.7278 16.5375 14.7278C16.7065 14.7278 16.8322 14.671 16.9146 14.5574C16.9984 14.4423 17.0403 14.2974 17.0403 14.1227V13.8969C17.0403 13.7264 16.9984 13.5822 16.9146 13.4643C16.8308 13.3464 16.7022 13.2875 16.5289 13.2875C16.3585 13.2875 16.2299 13.3464 16.1433 13.4643C16.0581 13.5822 16.0154 13.7264 16.0154 13.8969Z" fill="#888888"/>
</svg>
