<svg width="24" height="24" viewBox="0 0 24 24" fill="none" xmlns="http://www.w3.org/2000/svg">
<path d="M3.60253 8.83269C3.51012 8.57247 3.22426 8.43642 2.96404 8.52882C2.70382 8.62122 2.56777 8.90708 2.66017 9.16731L3.60253 8.83269ZM22.3464 9.41906C22.4379 9.15853 22.3009 8.87312 22.0404 8.78157C21.7799 8.69002 21.4945 8.82699 21.4029 9.08752L22.3464 9.41906ZM6.59581 18.7568L6.12463 18.9241L6.24276 19.2568L6.59581 19.2568L6.59581 18.7568ZM18.535 18.7568L18.535 19.2568C18.7472 19.2568 18.9364 19.1228 19.0067 18.9225L18.535 18.7568ZM2.66017 9.16731L6.12463 18.9241L7.06699 18.5894L3.60253 8.83269L2.66017 9.16731ZM6.59581 19.2568L18.535 19.2568L18.535 18.2568L6.59581 18.2568L6.59581 19.2568ZM19.0067 18.9225L22.3464 9.41906L21.4029 9.08752L18.0633 18.591L19.0067 18.9225Z" fill="#888888"/>
<path d="M4.67992 10.2865C6.00751 11.1722 6.86201 11.1093 8.53138 10.2857C10.2528 11.2368 10.994 10.9136 12.2544 10.2852C13.7553 11.1322 14.6253 11.18 16.2342 10.2863C17.8134 11.3312 18.6513 11.2389 20.0854 10.2852" stroke="#888888" stroke-linecap="round" stroke-linejoin="round"/>
<path d="M8.04323 17.1824L9.89905 13.5091V13.4792H7.74494V12.8187H10.7172V13.4942L8.86354 17.1824H8.04323ZM12.9241 17.2655C12.5732 17.2655 12.2721 17.1767 12.0207 16.9991C11.7707 16.8202 11.5782 16.5623 11.4433 16.2257C11.3097 15.8876 11.243 15.4807 11.243 15.0048C11.2444 14.529 11.3119 14.1241 11.4454 13.7903C11.5803 13.4551 11.7728 13.1994 12.0228 13.0233C12.2742 12.8471 12.5747 12.7591 12.9241 12.7591C13.2735 12.7591 13.5739 12.8471 13.8254 13.0233C14.0768 13.1994 14.2693 13.4551 14.4028 13.7903C14.5377 14.1256 14.6052 14.5304 14.6052 15.0048C14.6052 15.4821 14.5377 15.8898 14.4028 16.2278C14.2693 16.5645 14.0768 16.8216 13.8254 16.9991C13.5754 17.1767 13.2749 17.2655 12.9241 17.2655ZM12.9241 16.5986C13.1968 16.5986 13.412 16.4643 13.5697 16.1959C13.7288 15.926 13.8083 15.529 13.8083 15.0048C13.8083 14.6582 13.7721 14.367 13.6997 14.1312C13.6272 13.8954 13.5249 13.7179 13.3928 13.5986C13.2607 13.4778 13.1045 13.4175 12.9241 13.4175C12.6528 13.4175 12.4383 13.5524 12.2806 13.8223C12.123 14.0908 12.0434 14.4849 12.042 15.0048C12.0406 15.3528 12.0754 15.6454 12.1464 15.8827C12.2188 16.1199 12.3211 16.2989 12.4532 16.4196C12.5853 16.5389 12.7423 16.5986 12.9241 16.5986ZM15.3089 14.1227V13.8969C15.3089 13.6937 15.3508 13.514 15.4346 13.3578C15.5198 13.2001 15.6398 13.0765 15.7947 12.9871C15.9495 12.8976 16.1327 12.8528 16.3444 12.8528C16.664 12.8528 16.9161 12.9508 17.1008 13.1469C17.2854 13.3415 17.3777 13.5915 17.3777 13.8969V14.1227C17.3777 14.3244 17.3366 14.5034 17.2542 14.6596C17.1718 14.8145 17.0539 14.9366 16.9005 15.0261C16.7471 15.1142 16.5645 15.1582 16.3529 15.1582C16.0304 15.1582 15.7755 15.0616 15.588 14.8685C15.4019 14.6739 15.3089 14.4253 15.3089 14.1227ZM15.8309 13.8969V14.1227C15.8309 14.2974 15.8742 14.4423 15.9608 14.5574C16.0475 14.671 16.1782 14.7278 16.3529 14.7278C16.5219 14.7278 16.6476 14.671 16.73 14.5574C16.8138 14.4423 16.8557 14.2974 16.8557 14.1227V13.8969C16.8557 13.7264 16.8138 13.5822 16.73 13.4643C16.6462 13.3464 16.5177 13.2875 16.3444 13.2875C16.1739 13.2875 16.0454 13.3464 15.9587 13.4643C15.8735 13.5822 15.8309 13.7264 15.8309 13.8969Z" fill="#888888"/>
</svg>
