<svg width="264" height="126" viewBox="0 0 264 126" fill="none" xmlns="http://www.w3.org/2000/svg">
<g filter="url(#filter0_d_3572_13862)">
<circle cx="201" cy="59" r="23" fill="#72AA45"/>
</g>
<path d="M196.049 58.892L197.077 57.7998L197.623 58.3155C201.075 61.5667 204.538 63.5448 208.613 64.5531C209.163 63.0531 209.212 61.4022 208.737 59.7916C208.107 57.6545 206.64 55.7927 204.495 54.4075C202.609 53.1888 200.905 52.9033 199.1 52.6009C198.11 52.435 197.085 52.2634 195.967 51.9245C193.915 51.302 191.763 49.4523 191.741 49.4341L190.565 48.4141L190.5 49.9694C190.495 50.0894 190.386 52.9492 191.166 56.8961C191.99 61.068 193.521 64.2016 195.717 66.2069C197.498 67.833 199.824 68.7334 202.135 68.7334C202.571 68.7337 203.006 68.7013 203.437 68.6364C205.393 68.3402 207.02 67.3581 207.937 65.9294C203.742 64.8381 200.158 62.763 196.594 59.4063L196.049 58.892Z" fill="white"/>
<path d="M210.91 65.0087C210.121 64.8873 209.357 64.735 208.613 64.5508C208.46 64.9682 208.27 65.3711 208.045 65.7545C208.01 65.8131 207.974 65.8712 207.938 65.9284C208.842 66.1627 209.758 66.3504 210.682 66.4909L211.424 66.6053L211.651 65.1227L210.91 65.0087Z" fill="white"/>
<path fill-rule="evenodd" clip-rule="evenodd" d="M141.599 83.1695C141.554 82.0025 141.58 80.8618 141.679 79.7545C140.518 79.093 139.101 78.9548 137.611 79.3589C134.518 80.1974 133.212 83.5394 133.91 86.1162L141.707 84.0021C141.645 83.6651 141.607 83.381 141.599 83.1695ZM137.024 77.1944C138.906 76.684 140.647 76.7883 142.042 77.2341C143.34 70.8285 147.383 65.865 154.497 63.9358C160.416 62.3307 166.461 64.0899 169.432 68.9593L174.992 67.4518L175.662 69.9255L171.127 71.1554L173.727 80.7412C174.062 81.9781 174.848 82.4288 175.673 82.2052L178.456 81.4505L179.182 84.1305L175.369 85.1646C173.204 85.7516 171.642 84.0728 170.972 81.5991C170.065 84.9462 168.244 87.0972 165.866 87.9099C164.207 88.3981 162.761 87.7329 161.921 85.4701C161.121 83.1598 161.007 81.8134 160.841 79.8531L160.84 79.8529C160.791 79.2669 160.737 78.626 160.658 77.888C157.783 86.3461 156.191 90.0161 154.018 90.5568C151.107 90.7168 149.78 88.0834 148.906 82.7731C148.346 78.6228 149.594 74.6617 153.41 73.2873C156.01 72.6885 157.08 73.1177 159 73.8879C159.126 73.9383 159.255 73.9902 159.389 74.0434L160.746 70.2792L163.064 70.8959C163.187 82.3013 163.72 85.9584 165.87 85.4183C168.394 83.774 169.57 77.4729 167.943 72.0189L165.355 72.7206L164.684 70.2469L166.707 69.6983C164.659 67.2895 160.439 65.0416 155.183 66.4667C149.353 68.0478 145.896 71.936 144.822 79.0411C145.985 80.3646 146.813 81.8751 147.56 84.6281L144.9 85.3492C145.077 86.3078 145.315 87.1918 145.668 88.0762C145.743 87.8301 145.804 87.5728 145.851 87.3044L148.332 88.2915C148.045 89.1485 147.722 89.9022 147.34 90.565C150.32 94.0297 153.9 94.6409 160.894 93.7867L161.58 96.3176C154.715 97.425 149.297 96.9621 145.478 92.7301C144.594 93.4107 143.498 93.918 142.104 94.2959C136.641 95.7773 132.824 92.7183 131.482 87.7707C130.113 82.7201 132.592 78.3963 137.024 77.1944ZM134.366 88.2058L142.2 86.0815C142.529 87.2757 142.953 88.6 143.372 89.7077C143.564 90.0613 143.762 90.3994 143.967 90.7226C143.247 91.3508 142.389 91.7843 141.489 92.0283C139.324 92.6153 136.449 92.1013 134.366 88.2058ZM153.863 87.5421C154.285 87.4277 157.042 80.7208 158.541 76.7638C156.859 75.5401 155.847 75.4127 153.885 75.8754C151.976 76.6459 151.423 78.1281 151.442 82.3117C151.59 83.9698 152.824 87.8239 153.863 87.5421ZM112.183 77.4021L109.503 78.1288L115.708 101.011L118.388 100.284L116.865 94.6681C117.377 96.2222 118.573 98.2489 119.214 98.8431C119.584 99.1855 122.724 99.9523 126.409 98.4414C128.002 97.788 132.549 94.5631 130.2 87.1226C129.074 83.5582 125.198 80.5119 119.941 81.9374C116.849 82.7759 115.282 84.75 114.671 86.5756L112.183 77.4021ZM125.935 95.4715C122.038 97.6875 119.985 97.1957 116.683 93.9969C116.225 93.1251 115.694 91.1667 115.799 89.9211C116.446 86.5384 117.773 84.9597 120.556 84.205C124.267 83.1988 127.017 85.994 127.576 88.0555C128.61 91.8692 127.698 94.2189 125.935 95.4715Z" fill="#305164"/>
<path d="M8.62 48.36V56.38H18.74V60.52H8.62V68.7H21.46V73H3.22V44.08H21.46V48.36H8.62ZM39.2884 56.82C39.1418 57.0067 38.9951 57.1533 38.8484 57.26C38.7151 57.3667 38.5151 57.42 38.2484 57.42C37.9951 57.42 37.7484 57.3467 37.5084 57.2C37.2684 57.04 36.9818 56.8667 36.6484 56.68C36.3151 56.48 35.9151 56.3067 35.4484 56.16C34.9951 56 34.4284 55.92 33.7484 55.92C32.8818 55.92 32.1218 56.08 31.4684 56.4C30.8151 56.7067 30.2684 57.1533 29.8284 57.74C29.4018 58.3267 29.0818 59.04 28.8684 59.88C28.6551 60.7067 28.5484 61.6467 28.5484 62.7C28.5484 63.7933 28.6618 64.7667 28.8884 65.62C29.1284 66.4733 29.4684 67.1933 29.9084 67.78C30.3484 68.3533 30.8818 68.7933 31.5084 69.1C32.1351 69.3933 32.8418 69.54 33.6284 69.54C34.4151 69.54 35.0484 69.4467 35.5284 69.26C36.0218 69.06 36.4351 68.8467 36.7684 68.62C37.1018 68.38 37.3884 68.1667 37.6284 67.98C37.8818 67.78 38.1618 67.68 38.4684 67.68C38.8684 67.68 39.1684 67.8333 39.3684 68.14L40.7884 69.94C40.2418 70.58 39.6484 71.12 39.0084 71.56C38.3684 71.9867 37.7018 72.3333 37.0084 72.6C36.3284 72.8533 35.6218 73.0333 34.8884 73.14C34.1684 73.2467 33.4484 73.3 32.7284 73.3C31.4618 73.3 30.2684 73.0667 29.1484 72.6C28.0284 72.12 27.0484 71.4267 26.2084 70.52C25.3684 69.6133 24.7018 68.5067 24.2084 67.2C23.7284 65.88 23.4884 64.38 23.4884 62.7C23.4884 61.1933 23.7018 59.8 24.1284 58.52C24.5684 57.2267 25.2084 56.1133 26.0484 55.18C26.8884 54.2333 27.9284 53.4933 29.1684 52.96C30.4084 52.4267 31.8351 52.16 33.4484 52.16C34.9818 52.16 36.3218 52.4067 37.4684 52.9C38.6284 53.3933 39.6684 54.1 40.5884 55.02L39.2884 56.82ZM52.6138 52.16C54.1338 52.16 55.5138 52.4067 56.7538 52.9C58.0071 53.3933 59.0738 54.0933 59.9538 55C60.8471 55.9067 61.5337 57.0133 62.0138 58.32C62.4938 59.6267 62.7338 61.0867 62.7338 62.7C62.7338 64.3267 62.4938 65.7933 62.0138 67.1C61.5337 68.4067 60.8471 69.52 59.9538 70.44C59.0738 71.36 58.0071 72.0667 56.7538 72.56C55.5138 73.0533 54.1338 73.3 52.6138 73.3C51.0804 73.3 49.6871 73.0533 48.4338 72.56C47.1804 72.0667 46.1071 71.36 45.2138 70.44C44.3338 69.52 43.6471 68.4067 43.1538 67.1C42.6738 65.7933 42.4338 64.3267 42.4338 62.7C42.4338 61.0867 42.6738 59.6267 43.1538 58.32C43.6471 57.0133 44.3338 55.9067 45.2138 55C46.1071 54.0933 47.1804 53.3933 48.4338 52.9C49.6871 52.4067 51.0804 52.16 52.6138 52.16ZM52.6138 69.5C54.3204 69.5 55.5804 68.9267 56.3938 67.78C57.2204 66.6333 57.6338 64.9533 57.6338 62.74C57.6338 60.5267 57.2204 58.84 56.3938 57.68C55.5804 56.52 54.3204 55.94 52.6138 55.94C50.8804 55.94 49.5938 56.5267 48.7538 57.7C47.9271 58.86 47.5138 60.54 47.5138 62.74C47.5138 64.94 47.9271 66.62 48.7538 67.78C49.5938 68.9267 50.8804 69.5 52.6138 69.5ZM76.0575 58.62C77.0442 58.62 77.9042 58.5 78.6375 58.26C79.3708 58.0067 79.9775 57.6533 80.4575 57.2C80.9508 56.7333 81.3175 56.1733 81.5575 55.52C81.7975 54.8533 81.9175 54.1133 81.9175 53.3C81.9175 52.5267 81.7975 51.8267 81.5575 51.2C81.3175 50.5733 80.9575 50.04 80.4775 49.6C79.9975 49.16 79.3908 48.8267 78.6575 48.6C77.9242 48.36 77.0575 48.24 76.0575 48.24H72.0375V58.62H76.0575ZM76.0575 44.08C77.9908 44.08 79.6642 44.3067 81.0775 44.76C82.4908 45.2133 83.6575 45.8467 84.5775 46.66C85.4975 47.4733 86.1775 48.4467 86.6175 49.58C87.0708 50.7133 87.2975 51.9533 87.2975 53.3C87.2975 54.7 87.0642 55.9867 86.5975 57.16C86.1308 58.32 85.4308 59.32 84.4975 60.16C83.5642 61 82.3908 61.6533 80.9775 62.12C79.5775 62.5867 77.9375 62.82 76.0575 62.82H72.0375V73H66.6575V44.08H76.0575ZM94.9906 56.04C95.6306 54.8133 96.3906 53.8533 97.2706 53.16C98.1506 52.4533 99.1906 52.1 100.391 52.1C101.337 52.1 102.097 52.3067 102.671 52.72L102.351 56.42C102.284 56.66 102.184 56.8333 102.051 56.94C101.931 57.0333 101.764 57.08 101.551 57.08C101.351 57.08 101.051 57.0467 100.651 56.98C100.264 56.9133 99.884 56.88 99.5106 56.88C98.964 56.88 98.4773 56.96 98.0506 57.12C97.624 57.28 97.2373 57.5133 96.8906 57.82C96.5573 58.1133 96.2573 58.4733 95.9906 58.9C95.7373 59.3267 95.4973 59.8133 95.2706 60.36V73H90.3306V52.48H93.2306C93.7373 52.48 94.0906 52.5733 94.2906 52.76C94.4906 52.9333 94.624 53.2533 94.6906 53.72L94.9906 56.04ZM113.747 52.16C115.267 52.16 116.647 52.4067 117.887 52.9C119.14 53.3933 120.207 54.0933 121.087 55C121.98 55.9067 122.667 57.0133 123.147 58.32C123.627 59.6267 123.867 61.0867 123.867 62.7C123.867 64.3267 123.627 65.7933 123.147 67.1C122.667 68.4067 121.98 69.52 121.087 70.44C120.207 71.36 119.14 72.0667 117.887 72.56C116.647 73.0533 115.267 73.3 113.747 73.3C112.213 73.3 110.82 73.0533 109.567 72.56C108.313 72.0667 107.24 71.36 106.347 70.44C105.467 69.52 104.78 68.4067 104.287 67.1C103.807 65.7933 103.567 64.3267 103.567 62.7C103.567 61.0867 103.807 59.6267 104.287 58.32C104.78 57.0133 105.467 55.9067 106.347 55C107.24 54.0933 108.313 53.3933 109.567 52.9C110.82 52.4067 112.213 52.16 113.747 52.16ZM113.747 69.5C115.453 69.5 116.713 68.9267 117.527 67.78C118.353 66.6333 118.767 64.9533 118.767 62.74C118.767 60.5267 118.353 58.84 117.527 57.68C116.713 56.52 115.453 55.94 113.747 55.94C112.013 55.94 110.727 56.5267 109.887 57.7C109.06 58.86 108.647 60.54 108.647 62.74C108.647 64.94 109.06 66.62 109.887 67.78C110.727 68.9267 112.013 69.5 113.747 69.5ZM145.51 52.48L137.37 73H132.89L124.75 52.48H128.83C129.204 52.48 129.51 52.5667 129.75 52.74C130.004 52.9133 130.17 53.1333 130.25 53.4L134.21 64.36C134.424 65 134.61 65.6267 134.77 66.24C134.93 66.8533 135.07 67.4667 135.19 68.08C135.324 67.4667 135.47 66.8533 135.63 66.24C135.79 65.6267 135.984 65 136.21 64.36L140.25 53.4C140.344 53.1333 140.51 52.9133 140.75 52.74C140.99 52.5667 141.277 52.48 141.61 52.48H145.51ZM160.738 60.38C160.738 59.74 160.645 59.14 160.458 58.58C160.285 58.0067 160.018 57.5067 159.658 57.08C159.298 56.6533 158.838 56.32 158.278 56.08C157.731 55.8267 157.091 55.7 156.358 55.7C154.931 55.7 153.805 56.1067 152.978 56.92C152.165 57.7333 151.645 58.8867 151.418 60.38H160.738ZM151.318 63.36C151.398 64.4133 151.585 65.3267 151.878 66.1C152.171 66.86 152.558 67.4933 153.038 68C153.518 68.4933 154.085 68.8667 154.738 69.12C155.405 69.36 156.138 69.48 156.938 69.48C157.738 69.48 158.425 69.3867 158.998 69.2C159.585 69.0133 160.091 68.8067 160.518 68.58C160.958 68.3533 161.338 68.1467 161.658 67.96C161.991 67.7733 162.311 67.68 162.618 67.68C163.031 67.68 163.338 67.8333 163.538 68.14L164.958 69.94C164.411 70.58 163.798 71.12 163.118 71.56C162.438 71.9867 161.725 72.3333 160.978 72.6C160.245 72.8533 159.491 73.0333 158.718 73.14C157.958 73.2467 157.218 73.3 156.498 73.3C155.071 73.3 153.745 73.0667 152.518 72.6C151.291 72.12 150.225 71.42 149.318 70.5C148.411 69.5667 147.698 68.42 147.178 67.06C146.658 65.6867 146.398 64.1 146.398 62.3C146.398 60.9 146.625 59.5867 147.078 58.36C147.531 57.12 148.178 56.0467 149.018 55.14C149.871 54.22 150.905 53.4933 152.118 52.96C153.345 52.4267 154.725 52.16 156.258 52.16C157.551 52.16 158.745 52.3667 159.838 52.78C160.931 53.1933 161.871 53.8 162.658 54.6C163.445 55.3867 164.058 56.36 164.498 57.52C164.951 58.6667 165.178 59.98 165.178 61.46C165.178 62.2067 165.098 62.7133 164.938 62.98C164.778 63.2333 164.471 63.36 164.018 63.36H151.318Z" fill="#1E8624"/>
<defs>
<filter id="filter0_d_3572_13862" x="138" y="0" width="126" height="126" filterUnits="userSpaceOnUse" color-interpolation-filters="sRGB">
<feFlood flood-opacity="0" result="BackgroundImageFix"/>
<feColorMatrix in="SourceAlpha" type="matrix" values="0 0 0 0 0 0 0 0 0 0 0 0 0 0 0 0 0 0 127 0" result="hardAlpha"/>
<feOffset dy="4"/>
<feGaussianBlur stdDeviation="20"/>
<feComposite in2="hardAlpha" operator="out"/>
<feColorMatrix type="matrix" values="0 0 0 0 0.258824 0 0 0 0 0.278431 0 0 0 0 0.298039 0 0 0 0.15 0"/>
<feBlend mode="normal" in2="BackgroundImageFix" result="effect1_dropShadow_3572_13862"/>
<feBlend mode="normal" in="SourceGraphic" in2="effect1_dropShadow_3572_13862" result="shape"/>
</filter>
</defs>
</svg>
