<svg width="106" height="106" viewBox="0 0 106 106" fill="none" xmlns="http://www.w3.org/2000/svg">
<path d="M48.4453 29.8119H57.5547V52.9994H91.5078C92.7158 52.9994 93.8743 52.5195 94.7285 51.6654C95.5826 50.8112 96.0625 49.6527 96.0625 48.4447V34.3666C96.0625 33.1586 95.5826 32.0001 94.7285 31.1459C93.8743 30.2918 92.7158 29.8119 91.5078 29.8119H79.1232C80.8003 26.3578 81.1909 22.4189 80.2248 18.7027C79.2587 14.9865 76.9993 11.7366 73.8523 9.53657C70.7053 7.33658 66.8771 6.33074 63.0551 6.69971C59.2332 7.06869 55.668 8.7883 53 11.5497C50.3274 8.80344 46.7653 7.09712 42.9503 6.73569C39.1353 6.37426 35.3161 7.38128 32.1754 9.57677C29.0346 11.7723 26.7769 15.0131 25.8059 18.7201C24.8348 22.4271 25.2137 26.3586 26.8747 29.8119H14.4922C13.2842 29.8119 12.1257 30.2918 11.2715 31.1459C10.4174 32.0001 9.9375 33.1586 9.9375 34.3666V48.4447C9.9375 49.6527 10.4174 50.8112 11.2715 51.6654C11.6945 52.0883 12.1966 52.4238 12.7492 52.6527C13.3018 52.8816 13.8941 52.9994 14.4922 52.9994H48.4453V29.8119ZM57.5547 22.7728C57.5547 21.3807 57.9675 20.0197 58.741 18.8622C59.5144 17.7046 60.6138 16.8024 61.9 16.2696C63.1862 15.7368 64.6016 15.5974 65.967 15.869C67.3324 16.1406 68.5867 16.811 69.5711 17.7955C70.5555 18.7799 71.226 20.0341 71.4976 21.3996C71.7692 22.765 71.6298 24.1804 71.097 25.4666C70.5642 26.7528 69.662 27.8522 68.5044 28.6256C67.3469 29.3991 65.9859 29.8119 64.5938 29.8119H57.5547V22.7728ZM34.3672 22.7728C34.3672 20.906 35.1088 19.1156 36.4289 17.7955C37.749 16.4754 39.5394 15.7338 41.4062 15.7338C43.2731 15.7338 45.0635 16.4754 46.3836 17.7955C47.7037 19.1156 48.4453 20.906 48.4453 22.7728V29.8119H41.4062C39.5394 29.8119 37.749 29.0703 36.4289 27.7502C35.1088 26.4301 34.3672 24.6397 34.3672 22.7728V22.7728Z" fill="#888888"/>
<path d="M57.5547 99.375H84.8828C86.0908 99.375 87.2493 98.8951 88.1035 98.041C88.9576 97.1868 89.4375 96.0283 89.4375 94.8203V59.625H57.5547V99.375Z" fill="#888888"/>
<path d="M16.5625 94.8203C16.5625 96.0283 17.0424 97.1868 17.8965 98.041C18.7507 98.8951 19.9092 99.375 21.1172 99.375H48.4453V59.625H16.5625V94.8203Z" fill="#888888"/>
</svg>
