<svg width="120" height="120" viewBox="0 0 120 120" fill="none" xmlns="http://www.w3.org/2000/svg">
<path d="M81.4925 70.0974C75.4632 64.7379 67.6767 61.7773 59.6096 61.7773C51.5426 61.7773 43.7561 64.7379 37.7267 70.0974C37.2173 70.5383 36.8005 71.0759 36.5005 71.6792C36.2006 72.2825 36.0235 72.9394 35.9796 73.6117C35.9356 74.284 36.0257 74.9583 36.2446 75.5955C36.4634 76.2327 36.8067 76.82 37.2544 77.3235C37.7022 77.8269 38.2455 78.2363 38.8528 78.528C39.4601 78.8197 40.1193 78.9878 40.7921 79.0226C41.465 79.0574 42.138 78.9581 42.7722 78.7306C43.4063 78.5031 43.9889 78.1519 44.4862 77.6973C48.6533 73.9937 54.0346 71.948 59.6096 71.948C65.1847 71.948 70.5659 73.9937 74.7331 77.6973C75.7415 78.5937 77.0647 79.0527 78.4116 78.9734C79.7585 78.8942 81.0188 78.2831 81.9151 77.2747C82.8115 76.2662 83.2705 74.943 83.1913 73.5961C83.112 72.2492 82.501 70.9889 81.4925 70.0926V70.0974Z" fill="#1A4157"/>
<path d="M59.605 40.8985C45.9498 40.8797 32.8016 46.0697 22.8409 55.4104C22.3366 55.8622 21.9276 56.4101 21.6378 57.022C21.348 57.6339 21.1833 58.2975 21.1534 58.9739C21.1235 59.6503 21.2289 60.3259 21.4635 60.961C21.6981 61.5961 22.0571 62.178 22.5196 62.6725C22.982 63.1671 23.5385 63.5643 24.1565 63.8409C24.7745 64.1175 25.4415 64.2679 26.1184 64.2834C26.7953 64.2988 27.4684 64.179 28.0984 63.9308C28.7283 63.6827 29.3024 63.3113 29.7869 62.8383C37.8747 55.2769 48.5331 51.0705 59.605 51.0705C70.6769 51.0705 81.3353 55.2769 89.4231 62.8383C89.9076 63.3113 90.4817 63.6827 91.1117 63.9308C91.7416 64.179 92.4148 64.2988 93.0916 64.2834C93.7685 64.2679 94.4355 64.1175 95.0535 63.8409C95.6715 63.5643 96.228 63.1671 96.6904 62.6725C97.1529 62.178 97.5119 61.5961 97.7465 60.961C97.9811 60.3259 98.0865 59.6503 98.0566 58.9739C98.0267 58.2975 97.862 57.6339 97.5722 57.022C97.2824 56.4101 96.8734 55.8622 96.3691 55.4104C86.4084 46.0697 73.2602 40.8797 59.605 40.8985V40.8985Z" fill="#1A4157"/>
<path d="M109.428 38.9959C95.7162 26.7615 77.982 20 59.6054 20C41.2288 20 23.4946 26.7615 9.78261 38.9959C9.26727 39.4361 8.84512 39.9749 8.54095 40.5805C8.23678 41.1862 8.05674 41.8466 8.01139 42.5228C7.96605 43.199 8.05633 43.8775 8.27691 44.5184C8.4975 45.1592 8.84395 45.7495 9.29591 46.2546C9.74786 46.7596 10.2962 47.1693 10.9087 47.4594C11.5212 47.7495 12.1856 47.9143 12.8627 47.9441C13.5398 47.9738 14.216 47.868 14.8516 47.6327C15.4872 47.3974 16.0693 47.0374 16.5639 46.574C28.4108 36.0082 43.7302 30.1693 59.6042 30.1693C75.4782 30.1693 90.7976 36.0082 102.645 46.574C103.65 47.4732 104.972 47.9362 106.319 47.861C107.666 47.7858 108.927 47.1787 109.827 46.1731C110.726 45.1676 111.189 43.846 111.114 42.4991C111.039 41.1522 110.431 39.8903 109.426 38.9911L109.428 38.9959Z" fill="#1A4157"/>
<path d="M59.6055 99.4336C63.8857 99.4336 67.3555 95.9638 67.3555 91.6836C67.3555 87.4034 63.8857 83.9336 59.6055 83.9336C55.3253 83.9336 51.8555 87.4034 51.8555 91.6836C51.8555 95.9638 55.3253 99.4336 59.6055 99.4336Z" fill="#1A4157"/>
<path d="M104.489 89.9717L111.169 83.292C111.486 82.9755 111.664 82.5461 111.664 82.0982C111.665 81.6502 111.487 81.2205 111.171 80.9035C110.854 80.5865 110.425 80.4081 109.977 80.4077C109.529 80.4073 109.099 80.5849 108.782 80.9014L102.103 87.5811L95.4228 80.9014C95.1058 80.5843 94.6759 80.4062 94.2275 80.4062C93.7792 80.4062 93.3492 80.5843 93.0322 80.9014C92.7152 81.2184 92.5371 81.6483 92.5371 82.0967C92.5371 82.545 92.7152 82.975 93.0322 83.292L99.7119 89.9717L93.0322 96.6514C92.7152 96.9684 92.5371 97.3983 92.5371 97.8467C92.5371 98.295 92.7152 98.725 93.0322 99.042C93.3492 99.359 93.7792 99.5371 94.2275 99.5371C94.6759 99.5371 95.1058 99.359 95.4228 99.042L102.103 92.3623L108.782 99.042C109.099 99.359 109.529 99.5371 109.978 99.5371C110.426 99.5371 110.856 99.359 111.173 99.042C111.49 98.725 111.668 98.295 111.668 97.8467C111.668 97.3983 111.49 96.9684 111.173 96.6514L104.489 89.9717Z" fill="#D00000"/>
</svg>
