<svg width="30" height="30" viewBox="0 0 30 30" fill="none" xmlns="http://www.w3.org/2000/svg">
<path d="M15 2.46094C13.0148 2.46094 11.25 1.875 11.25 1.875V1.99219C11.25 2.98675 11.6451 3.94058 12.3483 4.64384C13.0516 5.3471 14.0054 5.74219 15 5.74219C15.9946 5.74219 16.9484 5.3471 17.6516 4.64384C18.3549 3.94058 18.75 2.98675 18.75 1.99219V1.875C18.75 1.875 16.9852 2.46094 15 2.46094Z" fill="#4D908E"/>
<path d="M20.625 2.57812C20.3033 5.37656 17.8834 7.55859 15 7.55859C12.1166 7.55859 9.69668 5.37656 9.375 2.57812L0.9375 5.50781L1.99219 12.1875L5.60801 12.6223C6.02285 12.675 6.02402 12.675 6.02402 13.1021L5.625 28.125H24.375L23.976 13.1021C23.9637 12.692 23.9637 12.692 24.392 12.6223L28.0078 12.1875L29.0625 5.50781L20.625 2.57812Z" fill="#4D908E"/>
</svg>
