<svg width="43" height="22" viewBox="0 0 43 22" fill="none" xmlns="http://www.w3.org/2000/svg">
<path fill-rule="evenodd" clip-rule="evenodd" d="M28.1461 7.81529C26.3846 8.83336 25.6763 11.023 26.4674 12.849L20.2788 14.0354L18.5657 9.57557L20.6213 8.03285C20.8583 7.83895 20.8583 7.83895 20.7061 7.59231L16.0546 0H2.55727C2.55727 0 0 0 0 2.46552C0 4.83621 2.55727 4.83621 2.55727 4.83621H4.64097C4.64097 4.83621 6.06167 18.1121 7.29295 20.3879C7.90828 21.5253 10.7974 22 10.7974 22H32.0132C32.0132 22 34.4418 21.75 35.3282 20.6724C36.6542 19.0603 37.9802 4.83621 37.9802 4.83621H40.4427C40.4427 4.83621 43 4.72186 43 2.46552C43 0 40.4427 0 40.4427 0H30.9937L31.6732 1.25382C31.8239 1.51511 31.8247 1.51479 32.0964 1.4007L32.0967 1.40058L34.4591 0.389951L37.4609 4.10501L33.3402 8.87687C32.1561 7.27802 29.9076 6.79721 28.1461 7.81529ZM29.9434 10.933C31.1562 10.232 32.4413 9.96744 32.4413 9.96744L32.3999 9.89573C32.0489 9.28708 31.4708 8.84287 30.793 8.66083C30.1151 8.47878 29.3929 8.5738 28.7853 8.92499C28.1776 9.27618 27.7343 9.85477 27.5529 10.5335C27.3714 11.2122 27.4667 11.9354 27.8177 12.5441L27.8591 12.6158C27.8591 12.6158 28.7305 11.634 29.9434 10.933Z" fill="white"/>
</svg>
