<svg width="44" height="44" viewBox="0 0 44 44" fill="none" xmlns="http://www.w3.org/2000/svg">
<path d="M11 9.16797H34.8334L35.75 14.668H11V9.16797Z" fill="white"/>
<path d="M22.916 40.8418C25.4636 40.8418 27.7285 41.5938 27.7285 41.5938L27.7285 41.4434C27.7285 40.167 27.2215 38.9429 26.319 38.0404C25.4164 37.1379 24.1924 36.6309 22.916 36.6309C21.6397 36.6309 20.4156 37.1379 19.5131 38.0404C18.6105 38.9429 18.1035 40.167 18.1035 41.4434L18.1035 41.5938C18.1035 41.5938 20.3684 40.8418 22.916 40.8418Z" fill="white"/>
<path d="M0 8.70703H14.1752" stroke="white" stroke-width="0.5"/>
<path d="M32.7461 8.70703H44.0011" stroke="white" stroke-width="0.5"/>
<path fill-rule="evenodd" clip-rule="evenodd" d="M14.666 6.41406H15.5827V7.90457L14.666 7.90457V6.41406ZM32.0827 7.90457L34.9473 7.90457L34.4352 27.1839C34.4352 27.7319 34.4367 27.7321 34.9685 27.7997L34.9691 27.7998L39.6094 28.3577L40.9629 36.93L30.1348 40.6898C29.722 37.0984 26.6164 34.2982 22.916 34.2982C19.2157 34.2982 16.1101 37.0984 15.6973 40.6898L4.86914 36.93L6.22266 28.3577L10.863 27.7998C11.4126 27.7103 11.4126 27.7103 11.3968 27.1839L10.8848 7.90457L14.666 7.90457V9.16407H15.5827V7.90457L31.166 7.90457V9.16407H32.0827V7.90457ZM32.0827 7.90457L31.166 7.90457V6.41406H32.0827V7.90457Z" fill="white"/>
</svg>
