<svg width="52" height="52" viewBox="0 0 52 52" fill="none" xmlns="http://www.w3.org/2000/svg">
<path fill-rule="evenodd" clip-rule="evenodd" d="M37.3657 40.7182C40.4203 20.5907 26.8928 4.33594 25.4201 4.33594C24.1655 4.33594 9.98352 19.7179 13.5836 40.6637C16.9109 42.4091 29.5111 43.2273 37.3657 40.7182ZM25.4201 12.4695C26.1431 12.4695 26.7292 11.8834 26.7292 11.1604C26.7292 10.4374 26.1431 9.85132 25.4201 9.85132C24.6971 9.85132 24.111 10.4374 24.111 11.1604C24.111 11.8834 24.6971 12.4695 25.4201 12.4695ZM23.8948 15.3058C23.8948 16.0288 23.3087 16.6149 22.5857 16.6149C21.8627 16.6149 21.2766 16.0288 21.2766 15.3058C21.2766 14.5828 21.8627 13.9967 22.5857 13.9967C23.3087 13.9967 23.8948 14.5828 23.8948 15.3058ZM28.2576 16.6149C28.9806 16.6149 29.5668 16.0288 29.5668 15.3058C29.5668 14.5828 28.9806 13.9967 28.2576 13.9967C27.5346 13.9967 26.9485 14.5828 26.9485 15.3058C26.9485 16.0288 27.5346 16.6149 28.2576 16.6149ZM21.7112 19.8865C21.7112 20.6095 21.1251 21.1956 20.4021 21.1956C19.6791 21.1956 19.093 20.6095 19.093 19.8865C19.093 19.1635 19.6791 18.5774 20.4021 18.5774C21.1251 18.5774 21.7112 19.1635 21.7112 19.8865ZM30.4392 21.1956C31.1622 21.1956 31.7483 20.6095 31.7483 19.8865C31.7483 19.1635 31.1622 18.5774 30.4392 18.5774C29.7162 18.5774 29.1301 19.1635 29.1301 19.8865C29.1301 20.6095 29.7162 21.1956 30.4392 21.1956ZM33.4945 24.6869C33.4945 25.4099 32.9084 25.996 32.1854 25.996C31.4624 25.996 30.8763 25.4099 30.8763 24.6869C30.8763 23.9639 31.4624 23.3778 32.1854 23.3778C32.9084 23.3778 33.4945 23.9639 33.4945 24.6869ZM18.7657 25.996C19.4887 25.996 20.0748 25.4099 20.0748 24.6869C20.0748 23.9639 19.4887 23.3778 18.7657 23.3778C18.0427 23.3778 17.4566 23.9639 17.4566 24.6869C17.4566 25.4099 18.0427 25.996 18.7657 25.996ZM19.0934 29.4831C19.0934 30.2061 18.5073 30.7922 17.7843 30.7922C17.0613 30.7922 16.4752 30.2061 16.4752 29.4831C16.4752 28.7601 17.0613 28.174 17.7843 28.174C18.5073 28.174 19.0934 28.7601 19.0934 29.4831ZM33.057 30.7922C33.78 30.7922 34.3661 30.2061 34.3661 29.4831C34.3661 28.7601 33.78 28.174 33.057 28.174C32.334 28.174 31.7479 28.7601 31.7479 29.4831C31.7479 30.2061 32.334 30.7922 33.057 30.7922Z" fill="white"/>
<path d="M15.8203 43.2227C23.1616 44.6868 27.3755 44.5946 35.0206 43.2227L33.8205 47.15C27.106 47.0157 23.404 46.9884 17.0749 47.15L15.8203 43.2227Z" fill="white"/>
</svg>
