<svg width="41" height="40" viewBox="0 0 41 40" fill="none" xmlns="http://www.w3.org/2000/svg">
<path fill-rule="evenodd" clip-rule="evenodd" d="M7.2716 11.8891L12.6012 2.45981C13.5743 0.777058 14.3907 0.255491 16.2909 0H27.36L31.8697 6.96946L34.7395 5.32958L30.2298 13.5289L21.6205 12.709L24.4903 11.0691L20.8005 5.32958L14.651 15.9888L7.2716 11.8891ZM35.0577 12.8169L40.2684 22.3124C41.1867 24.0257 41.2003 24.9944 40.4171 26.7444L34.5893 36.1552L26.2897 36.3199L26.173 39.6231L21.5763 31.4722L26.8061 24.5844L26.6894 27.8876L33.5117 27.7724L27.6871 16.9323L35.0577 12.8169ZM9.56034 37.1586L20.3906 37.012L20.2142 28.572L7.90847 28.6301L11.0075 22.5512L13.8699 24.204L10.2408 16.354L0.886051 16.5893L3.7484 18.2421L0 25.6489L5.57663 35.2106C6.75465 36.7233 7.61647 37.1658 9.56034 37.1586Z" fill="white"/>
</svg>
