<svg width="41" height="41" viewBox="0 0 41 41" fill="none" xmlns="http://www.w3.org/2000/svg">
<path d="M8.28693 17.9375C9.58941 17.9385 10.8535 17.4963 11.8712 16.6835L15.1945 18.036L15.7406 17.0246C15.8389 16.8436 15.9548 16.6728 16.0865 16.5145L17.2252 15.3598L13.9284 13.3626C14.1745 12.1969 14.0534 10.9835 13.5817 9.8894C13.11 8.79529 12.311 7.87417 11.2945 7.25271C10.2779 6.63124 9.09383 6.33997 7.905 6.41893C6.71617 6.49789 5.581 6.94321 4.65559 7.69366C3.73018 8.4441 3.05998 9.46281 2.73716 10.6097C2.41433 11.7566 2.45474 12.9753 2.85283 14.0983C3.25091 15.2213 3.98712 16.1933 4.96021 16.8808C5.9333 17.5683 7.09548 17.9375 8.28693 17.9375ZM8.28693 8.96875C8.92045 8.96875 9.53974 9.15661 10.0665 9.50858C10.5932 9.86054 11.0038 10.3608 11.2462 10.9461C11.4887 11.5314 11.5521 12.1754 11.4285 12.7968C11.3049 13.4181 10.9998 13.9889 10.5519 14.4368C10.1039 14.8848 9.53317 15.1899 8.91183 15.3135C8.29048 15.437 7.64644 15.3736 7.06115 15.1312C6.47585 14.8887 5.97559 14.4782 5.62363 13.9514C5.27166 13.4247 5.0838 12.8054 5.0838 12.1719C5.0838 11.3224 5.42127 10.5076 6.02198 9.90693C6.62268 9.30622 7.43741 8.96875 8.28693 8.96875Z" fill="white"/>
<path d="M38.4375 13.5339L37.9955 12.5265C37.6367 11.6921 36.8151 11.2453 35.3705 11.0971C34.5601 11.0171 33.2124 10.9978 31.3914 11.4022C29.7899 11.7586 21.6107 13.6604 18.1825 16.0964C16.561 17.2487 16.2559 18.7926 16.0156 20.0331C15.793 21.1654 15.6152 22.0598 14.5742 22.8358C13.373 23.7279 12.3905 24.1475 11.8852 24.3252C10.8168 23.4771 9.48152 23.0367 8.1182 23.083C6.75487 23.1293 5.45251 23.6592 4.44415 24.5779C3.4358 25.4966 2.78726 26.7442 2.61458 28.0973C2.44191 29.4505 2.75637 30.8209 3.5017 31.9634C4.24702 33.1059 5.37457 33.9459 6.68258 34.3331C7.99059 34.7202 9.39369 34.6294 10.6408 34.0767C11.8879 33.524 12.8977 32.5455 13.4894 31.3164C14.0811 30.0873 14.2161 28.6878 13.8703 27.3682L38.4375 13.5339ZM20.4584 20.5007C20.205 20.5007 19.9572 20.4256 19.7465 20.2848C19.5358 20.144 19.3716 19.9439 19.2746 19.7098C19.1777 19.4757 19.1523 19.218 19.2017 18.9695C19.2512 18.721 19.3732 18.4927 19.5524 18.3135C19.7316 18.1343 19.9599 18.0123 20.2084 17.9628C20.4569 17.9134 20.7146 17.9388 20.9487 18.0357C21.1828 18.1327 21.3829 18.2969 21.5237 18.5076C21.6645 18.7183 21.7396 18.9661 21.7396 19.2195C21.7396 19.3877 21.7065 19.5543 21.6421 19.7098C21.5777 19.8652 21.4833 20.0065 21.3643 20.1254C21.2454 20.2444 21.1041 20.3388 20.9487 20.4032C20.7932 20.4676 20.6266 20.5007 20.4584 20.5007ZM8.28648 32.032C7.65296 32.032 7.03367 31.8441 6.50692 31.4921C5.98017 31.1402 5.56962 30.6399 5.32718 30.0546C5.08474 29.4693 5.02131 28.8253 5.1449 28.2039C5.2685 27.5826 5.57357 27.0119 6.02153 26.5639C6.4695 26.1159 7.04024 25.8109 7.66158 25.6873C8.28293 25.5637 8.92697 25.6271 9.51226 25.8695C10.0976 26.112 10.5978 26.5225 10.9498 27.0493C11.3017 27.576 11.4896 28.1953 11.4896 28.8288C11.4896 29.6784 11.1521 30.4931 10.5514 31.0938C9.95073 31.6945 9.136 32.032 8.28648 32.032Z" fill="white"/>
<path d="M27.53 20.8086L20.8242 24.6668L23.0368 25.7142L23.3267 25.8535C24.8241 26.5782 28.8072 28.5065 32.8744 28.7467C33.1859 28.7652 33.4726 28.774 33.7376 28.774C35.3944 28.7716 36.2753 28.3463 36.8158 28.026L38.4374 26.9049L27.53 20.8086Z" fill="white"/>
</svg>
