<svg width="24" height="24" viewBox="0 0 24 24" fill="none" xmlns="http://www.w3.org/2000/svg">
<path d="M22.4998 21.0003H21.9373C21.8876 21.0003 21.8399 20.9805 21.8047 20.9454C21.7696 20.9102 21.7498 20.8625 21.7498 20.8128V12.8211C21.7502 12.7912 21.7436 12.7617 21.7303 12.735C21.717 12.7083 21.6976 12.6851 21.6735 12.6674C21.6495 12.6497 21.6216 12.638 21.5922 12.6333C21.5627 12.6285 21.5326 12.6309 21.5042 12.6401C21.0741 12.7753 20.6274 12.8507 20.1767 12.8642C20.1214 12.8642 20.0689 12.8665 20.0173 12.8665C19.1505 12.8686 18.2976 12.6485 17.54 12.2272C17.4826 12.1953 17.4181 12.1785 17.3525 12.1785C17.2869 12.1785 17.2223 12.1953 17.165 12.2272C16.4076 12.6485 15.5548 12.8686 14.6881 12.8665C13.8263 12.8678 12.9789 12.645 12.229 12.2201C12.1712 12.1874 12.1059 12.1702 12.0394 12.1702C11.973 12.1702 11.9077 12.1874 11.8498 12.2201C11.0887 12.6466 10.2304 12.8694 9.35795 12.867C8.49031 12.8676 7.6376 12.6414 6.88435 12.2108C6.82607 12.1776 6.76016 12.1602 6.6931 12.1602C6.62604 12.1602 6.56014 12.1776 6.50185 12.2108C5.74861 12.6414 4.89589 12.8676 4.02826 12.867C3.97717 12.867 3.9256 12.867 3.87029 12.8647H3.86748C3.40097 12.8507 2.93884 12.7703 2.49498 12.6261C2.46687 12.617 2.43701 12.6147 2.40784 12.6193C2.37867 12.624 2.35101 12.6354 2.32711 12.6528C2.30321 12.6702 2.28375 12.6929 2.27032 12.7192C2.25689 12.7455 2.24987 12.7747 2.24982 12.8042V20.8128C2.24982 20.8625 2.23007 20.9102 2.1949 20.9454C2.15974 20.9805 2.11205 21.0003 2.06232 21.0003H1.52326C1.11826 21.0003 0.768572 21.3115 0.75076 21.7165C0.7462 21.8178 0.762196 21.9188 0.797782 22.0137C0.833367 22.1086 0.887804 22.1952 0.957807 22.2685C1.02781 22.3417 1.11193 22.4 1.20509 22.4399C1.29824 22.4797 1.3985 22.5003 1.49982 22.5003H22.4764C22.8814 22.5003 23.2311 22.189 23.2489 21.784C23.2534 21.6828 23.2374 21.5817 23.2019 21.4869C23.1663 21.392 23.1118 21.3053 23.0418 21.2321C22.9718 21.1589 22.8877 21.1005 22.7946 21.0607C22.7014 21.0209 22.6011 21.0003 22.4998 21.0003V21.0003ZM10.4998 17.8128C10.4998 17.8625 10.4801 17.9102 10.4449 17.9454C10.4097 17.9805 10.3621 18.0003 10.3123 18.0003H6.18732C6.13759 18.0003 6.0899 17.9805 6.05474 17.9454C6.01958 17.9102 5.99982 17.8625 5.99982 17.8128V14.8128C5.99982 14.6636 6.05909 14.5205 6.16457 14.415C6.27006 14.3096 6.41314 14.2503 6.56232 14.2503H9.93732C10.0865 14.2503 10.2296 14.3096 10.3351 14.415C10.4406 14.5205 10.4998 14.6636 10.4998 14.8128V17.8128ZM17.8123 21.0003H14.4373C14.3876 21.0003 14.3399 20.9805 14.3047 20.9454C14.2696 20.9102 14.2498 20.8625 14.2498 20.8128V14.8128C14.2498 14.6636 14.3091 14.5205 14.4146 14.415C14.5201 14.3096 14.6631 14.2503 14.8123 14.2503H17.4373C17.5865 14.2503 17.7296 14.3096 17.8351 14.415C17.9406 14.5205 17.9998 14.6636 17.9998 14.8128V20.8128C17.9998 20.8625 17.9801 20.9102 17.9449 20.9454C17.9097 20.9805 17.8621 21.0003 17.8123 21.0003Z" fill="#1A4157"/>
<path d="M23.0891 7.98188L21.0772 3.36516C20.5504 2.23219 19.3471 1.5 18.0116 1.5H5.98582C4.65035 1.5 3.44707 2.23219 2.9202 3.36516L0.908321 7.98188C0.486446 8.89172 1.04379 9.82594 1.04426 9.82641L1.05738 9.8475C1.08035 9.88406 1.12113 9.94125 1.14598 9.97781C1.14832 9.98063 1.1502 9.98391 1.15254 9.98719L1.38691 10.2708C1.39568 10.2815 1.40507 10.2917 1.41504 10.3013L1.64941 10.5277L1.6691 10.5445C1.80674 10.6625 1.95397 10.7688 2.10926 10.8623V10.8647C2.6194 11.1737 3.20061 11.346 3.79676 11.3648C3.8352 11.3648 3.87363 11.3648 3.91254 11.3648C4.81454 11.3665 5.68368 11.0263 6.34488 10.4128L6.36035 10.3983C6.42941 10.3332 6.52071 10.297 6.61559 10.297C6.71047 10.297 6.80177 10.3332 6.87082 10.3983L6.88629 10.4128C7.55454 11.0253 8.42809 11.3651 9.33457 11.3651C10.241 11.3651 11.1146 11.0253 11.7829 10.4128C11.8522 10.3486 11.9432 10.313 12.0376 10.313C12.1321 10.313 12.2231 10.3486 12.2924 10.4128V10.4128C12.9587 11.0234 13.829 11.3629 14.7327 11.3649C15.6364 11.3669 16.5083 11.0312 17.1772 10.4236C17.2455 10.3603 17.3352 10.3252 17.4282 10.3252C17.5213 10.3252 17.611 10.3603 17.6793 10.4236C18.3489 11.0349 19.2246 11.371 20.1313 11.3648H20.248C20.8292 11.3431 21.3947 11.1703 21.8886 10.8633V10.8633C21.9332 10.8366 21.9758 10.8084 22.0189 10.7803C22.3521 10.5557 22.642 10.2729 22.8749 9.94547L22.9564 9.82219C22.9646 9.80969 22.9721 9.79656 22.9789 9.78281C23.0568 9.62438 23.4739 8.80969 23.0891 7.98188Z" fill="#1A4157"/>
</svg>
