<svg width="59" height="59" viewBox="0 0 59 59" fill="none" xmlns="http://www.w3.org/2000/svg">
<path fill-rule="evenodd" clip-rule="evenodd" d="M12.291 13.2891C12.291 12.7368 12.7387 12.2891 13.291 12.2891H45.7077C46.26 12.2891 46.7077 12.7368 46.7077 13.2891V48.1641C46.7077 48.7163 46.26 49.1641 45.7077 49.1641H13.291C12.7387 49.1641 12.291 48.7163 12.291 48.1641V13.2891ZM40.5618 33.1177C40.5618 39.2273 35.609 44.1802 29.4993 44.1802C23.3897 44.1802 18.4368 39.2273 18.4368 33.1177C18.4368 27.008 23.3897 22.0552 29.4993 22.0552C35.609 22.0552 40.5618 27.008 40.5618 33.1177ZM31.958 14.7487H17.208V17.207H31.958V14.7487ZM36.8747 15.9779C36.8747 16.6567 36.3244 17.207 35.6455 17.207C34.9667 17.207 34.4163 16.6567 34.4163 15.9779C34.4163 15.299 34.9667 14.7487 35.6455 14.7487C36.3244 14.7487 36.8747 15.299 36.8747 15.9779ZM40.5622 17.207C41.241 17.207 41.7913 16.6567 41.7913 15.9779C41.7913 15.299 41.241 14.7487 40.5622 14.7487C39.8833 14.7487 39.333 15.299 39.333 15.9779C39.333 16.6567 39.8833 17.207 40.5622 17.207Z" fill="white"/>
<g clip-path="url(#clip0_3448_19655)">
<path d="M24.4644 31.6685C23.9698 32.5251 23.2773 33.1406 23.2773 33.1406L23.3279 33.1698C23.757 33.4176 24.267 33.4847 24.7457 33.3565C25.2243 33.2282 25.6324 32.9151 25.8802 32.4859C26.1279 32.0568 26.1951 31.5468 26.0668 31.0682C25.9386 30.5896 25.6254 30.1815 25.1963 29.9337L25.1457 29.9045C25.1457 29.9045 24.9589 30.812 24.4644 31.6685Z" fill="white"/>
<path d="M25.9162 29.2708C27.0435 30.1068 27.3822 31.6945 26.6639 32.9386C25.9456 34.1828 24.4013 34.6833 23.1136 34.125L22.2758 38.4955L25.4207 39.7044L26.5091 38.2525C26.6352 38.0867 26.6355 38.0862 26.8198 38.1926L33.2025 42.1072L37.8734 34.0169L31.2919 30.4466C31.1119 30.3498 31.1119 30.3498 31.1885 30.1476L31.9017 28.4791L29.2822 26.36L25.9162 29.2708Z" fill="white"/>
</g>
<defs>
<clipPath id="clip0_3448_19655">
<rect width="14.947" height="14.947" fill="white" transform="translate(19.666 37.5273) rotate(-60)"/>
</clipPath>
</defs>
</svg>
