<svg width="36" height="18" viewBox="0 0 36 18" fill="none" xmlns="http://www.w3.org/2000/svg">
<path fill-rule="evenodd" clip-rule="evenodd" d="M23.5467 6.37706C22.066 7.21583 21.4632 9.00741 22.1186 10.4959L16.9268 11.49L15.5098 7.85372L17.239 6.58518C17.4385 6.42583 17.4385 6.42583 17.3119 6.22497L13.4192 0H2.14097C2.14097 0 0 0 0 2.01724C0 3.9569 2.14097 3.9569 2.14097 3.9569H3.88546C3.88546 3.9569 5.07489 14.819 6.10573 16.681C6.62088 17.6116 9.03965 18 9.03965 18H26.8018C26.8018 18 28.835 17.7955 29.5771 16.9138C30.6872 15.5948 31.7974 3.9569 31.7974 3.9569H33.859C33.859 3.9569 36 3.86334 36 2.01724C36 0 33.859 0 33.859 0H25.9765L26.5304 1.00281C26.6556 1.21564 26.6562 1.21538 26.8845 1.12109L26.8847 1.12099L28.8689 0.285864L31.3692 3.30853L27.8955 7.22327C26.9098 5.92197 25.0273 5.53829 23.5467 6.37706ZM25.0653 8.94115C26.0834 8.36455 27.1601 8.14355 27.1601 8.14355L27.1258 8.08523C26.8346 7.59024 26.3526 7.23027 25.786 7.08453C25.2193 6.93879 24.6145 7.0192 24.1044 7.30808C23.5943 7.59696 23.2208 8.07064 23.0661 8.62492C22.9114 9.1792 22.9881 9.76868 23.2794 10.2637L23.3137 10.322C23.3137 10.322 24.0472 9.51776 25.0653 8.94115Z" fill="black"/>
</svg>
