<svg width="24" height="24" viewBox="0 0 24 24" fill="none" xmlns="http://www.w3.org/2000/svg">
<path fill-rule="evenodd" clip-rule="evenodd" d="M6 8C7.65685 8 9 6.65685 9 5C9 3.34315 7.65685 2 6 2C4.34315 2 3 3.34315 3 5C3 6.65685 4.34315 8 6 8ZM6 6C6.55228 6 7 5.55229 7 5C7 4.44772 6.55228 4 6 4C5.44772 4 5 4.44772 5 5C5 5.55229 5.44772 6 6 6Z" fill="#6A778A"/>
<path fill-rule="evenodd" clip-rule="evenodd" d="M15.1707 13C15.5825 14.1652 16.6938 15 18 15C19.6569 15 21 13.6569 21 12C21 10.3431 19.6569 9 18 9C16.6938 9 15.5825 9.83481 15.1707 11H4C3.44772 11 3 11.4477 3 12C3 12.5523 3.44772 13 4 13H15.1707ZM18 13C18.5523 13 19 12.5523 19 12C19 11.4477 18.5523 11 18 11C17.4477 11 17 11.4477 17 12C17 12.5523 17.4477 13 18 13Z" fill="#6A778A"/>
<path fill-rule="evenodd" clip-rule="evenodd" d="M11 22C9.69378 22 8.58254 21.1652 8.17071 20H4C3.44772 20 3 19.5523 3 19C3 18.4477 3.44772 18 4 18H8.17071C8.58254 16.8348 9.69378 16 11 16C12.6569 16 14 17.3431 14 19C14 20.6569 12.6569 22 11 22ZM12 19C12 19.5523 11.5523 20 11 20C10.4477 20 10 19.5523 10 19C10 18.4477 10.4477 18 11 18C11.5523 18 12 18.4477 12 19Z" fill="#6A778A"/>
<path d="M11 5C11 4.44772 11.4477 4 12 4L20 4C20.5523 4 21 4.44771 21 5C21 5.55228 20.5523 6 20 6L12 6C11.4477 6 11 5.55229 11 5Z" fill="#6A778A"/>
<path d="M17 18C16.4477 18 16 18.4477 16 19C16 19.5523 16.4477 20 17 20H20C20.5523 20 21 19.5523 21 19C21 18.4477 20.5523 18 20 18H17Z" fill="#6A778A"/>
</svg>
