<svg width="36" height="25" viewBox="0 0 36 25" fill="none" xmlns="http://www.w3.org/2000/svg">
<path fill-rule="evenodd" clip-rule="evenodd" d="M22.9697 16.8447C23.2626 16.5518 23.7374 16.5518 24.0303 16.8447L28 20.8143L31.9697 16.8447C32.2626 16.5518 32.7374 16.5518 33.0303 16.8447C33.3232 17.1376 33.3232 17.6124 33.0303 17.9053L28.5303 22.4053C28.2374 22.6982 27.7626 22.6982 27.4697 22.4053L22.9697 17.9053C22.6768 17.6124 22.6768 17.1376 22.9697 16.8447Z" fill="black"/>
<path fill-rule="evenodd" clip-rule="evenodd" d="M28 11.375C28.4142 11.375 28.75 11.7108 28.75 12.125V21.25C28.75 21.6642 28.4142 22 28 22C27.5858 22 27.25 21.6642 27.25 21.25V12.125C27.25 11.7108 27.5858 11.375 28 11.375Z" fill="black"/>
<path d="M12 2.25C6.61547 2.25 2.25 6.61547 2.25 12C2.25 17.3845 6.61547 21.75 12 21.75C17.3845 21.75 21.75 17.3845 21.75 12C21.75 6.61547 17.3845 2.25 12 2.25ZM16.5 13.5H12C11.8011 13.5 11.6103 13.421 11.4697 13.2803C11.329 13.1397 11.25 12.9489 11.25 12.75V6C11.25 5.80109 11.329 5.61032 11.4697 5.46967C11.6103 5.32902 11.8011 5.25 12 5.25C12.1989 5.25 12.3897 5.32902 12.5303 5.46967C12.671 5.61032 12.75 5.80109 12.75 6V12H16.5C16.6989 12 16.8897 12.079 17.0303 12.2197C17.171 12.3603 17.25 12.5511 17.25 12.75C17.25 12.9489 17.171 13.1397 17.0303 13.2803C16.8897 13.421 16.6989 13.5 16.5 13.5Z" fill="black"/>
</svg>
