<svg width="24" height="24" viewBox="0 0 24 24" fill="none" xmlns="http://www.w3.org/2000/svg">
<path d="M10.9688 6.74999H13.0312V12H20.7188C20.9923 12 21.2546 11.8913 21.448 11.6979C21.6413 11.5045 21.75 11.2422 21.75 10.9687V7.78124C21.75 7.50773 21.6413 7.24543 21.448 7.05203C21.2546 6.85864 20.9923 6.74999 20.7188 6.74999H17.9147C18.2944 5.96793 18.3828 5.07611 18.1641 4.2347C17.9454 3.3933 17.4338 2.65746 16.7213 2.15935C16.0088 1.66123 15.142 1.4335 14.2766 1.51704C13.4113 1.60058 12.6041 1.98993 12 2.61514C11.3949 1.99335 10.5884 1.60702 9.7246 1.52518C8.86083 1.44335 7.99611 1.67136 7.28499 2.16845C6.57387 2.66554 6.0627 3.39932 5.84284 4.23863C5.62298 5.07795 5.70875 5.9681 6.08484 6.74999H3.28125C3.00775 6.74999 2.74544 6.85864 2.55205 7.05203C2.35865 7.24543 2.25 7.50773 2.25 7.78124V10.9687C2.25 11.2422 2.35865 11.5045 2.55205 11.6979C2.64781 11.7937 2.76149 11.8697 2.88661 11.9215C3.01172 11.9733 3.14582 12 3.28125 12H10.9688V6.74999ZM13.0312 5.15624C13.0312 4.84102 13.1247 4.53289 13.2998 4.2708C13.475 4.00871 13.7239 3.80443 14.0151 3.6838C14.3063 3.56318 14.6268 3.53162 14.9359 3.59311C15.2451 3.65461 15.5291 3.8064 15.752 4.02929C15.9748 4.25218 16.1266 4.53616 16.1881 4.84531C16.2496 5.15447 16.2181 5.47492 16.0974 5.76614C15.9768 6.05736 15.7725 6.30627 15.5104 6.48139C15.2483 6.65652 14.9402 6.74999 14.625 6.74999H13.0312V5.15624ZM7.78125 5.15624C7.78125 4.73355 7.94916 4.32817 8.24805 4.02929C8.54694 3.7304 8.95231 3.56249 9.375 3.56249C9.79769 3.56249 10.2031 3.7304 10.502 4.02929C10.8008 4.32817 10.9688 4.73355 10.9688 5.15624V6.74999H9.375C8.95231 6.74999 8.54694 6.58208 8.24805 6.28319C7.94916 5.9843 7.78125 5.57893 7.78125 5.15624Z" fill="#044708"/>
<path d="M13.0312 22.5H19.2188C19.4923 22.5 19.7546 22.3913 19.948 22.198C20.1414 22.0046 20.25 21.7423 20.25 21.4688V13.5H13.0312V22.5Z" fill="#044708"/>
<path d="M3.75 21.4688C3.75 21.7423 3.85865 22.0046 4.05205 22.198C4.24544 22.3913 4.50775 22.5 4.78125 22.5H10.9688V13.5H3.75V21.4688Z" fill="#044708"/>
</svg>
